<svg width="16" height="17" viewBox="0 0 16 17" fill="none" xmlns="http://www.w3.org/2000/svg">
<g clip-path="url(#clip0_69_2118)">
<path d="M12.7822 7.07972C11.5022 9.59527 9.44 11.6486 6.92444 12.9375L4.96889 10.9819C4.72889 10.7419 4.37333 10.6619 4.06222 10.7686C3.06667 11.0975 1.99111 11.2753 0.888888 11.2753C0.4 11.2753 0 11.6753 0 12.1642V15.2664C0 15.7553 0.4 16.1553 0.888888 16.1553C9.23556 16.1553 16 9.39083 16 1.04416C16 0.555273 15.6 0.155273 15.1111 0.155273H12C11.5111 0.155273 11.1111 0.555273 11.1111 1.04416C11.1111 2.15527 10.9333 3.22194 10.6044 4.2175C10.5067 4.52861 10.5778 4.87527 10.8267 5.12416L12.7822 7.07972Z" fill="white"/>
</g>
<defs>
<clipPath id="clip0_69_2118">
<rect width="16" height="16" fill="white" transform="matrix(-1 0 0 1 16 0.155273)"/>
</clipPath>
</defs>
</svg>
