<svg width="1937" height="312" viewBox="0 0 1937 312" fill="none" xmlns="http://www.w3.org/2000/svg">
<path d="M1 9C30.5 35.5 485.7 187 726 187C1046 187 1336 81.5 1484.5 81.5C1603.3 81.5 1835 151.833 1936 187" stroke="black" stroke-width="1.5"/>
<path d="M664.96 56.8988C665.486 54.5489 665.252 52.0927 664.291 49.8846C661.546 43.4404 654.038 27.4804 646.816 26.9803C637.758 26.3533 640.616 34.3295 643.83 36.2343C645.624 37.3633 647.917 37.3165 649.663 36.1153C649.663 36.1153 658.338 46.6561 657.401 49.9249C657.401 49.9249 652.401 49.9249 654.068 54.6869C655.526 58.8536 663.092 64.9344 664.96 56.8988Z" fill="#DC911B"/>
<path d="M647.82 124.701C647.82 124.701 671.132 205.148 639.529 231.933C607.926 258.718 574.177 271.039 574.177 271.039L570.963 283.36L554.892 244.254L599.89 192.827L619.173 114.081" fill="#E2E2E2"/>
<path d="M616.356 167.114C612.327 167.114 608.475 168.928 604.934 172.229L599.89 192.828L588.967 205.312C586.373 216.253 584.891 228.9 584.891 242.376C584.88 250.198 585.399 258.012 586.443 265.765C599.101 259.81 619.735 248.709 639.529 231.933C642.379 229.492 644.836 226.628 646.816 223.441C643.305 191.041 630.999 167.114 616.356 167.114Z" fill="black"/>
<path d="M638.29 112.64C638.29 112.64 645.5 230.315 625.137 286.03L629.39 292.279H593.172C593.172 292.279 589.215 142.603 589.215 110.297L638.29 112.64Z" fill="#EDEEEF"/>
<path d="M629.874 21.5937V36.8864L610.93 41.5429V15.7351L629.874 11.0786V21.5937Z" fill="#EDEEEF"/>
<path d="M619.173 26.8842C619.453 26.8842 619.679 26.6574 619.679 26.3776C619.679 26.0979 619.453 25.8711 619.173 25.8711C618.893 25.8711 618.666 26.0979 618.666 26.3776C618.666 26.6574 618.893 26.8842 619.173 26.8842Z" fill="black"/>
<path d="M626.953 26.8842C627.233 26.8842 627.459 26.6574 627.459 26.3776C627.459 26.0979 627.233 25.8711 626.953 25.8711C626.673 25.8711 626.446 26.0979 626.446 26.3776C626.446 26.6574 626.673 26.8842 626.953 26.8842Z" fill="black"/>
<path d="M624.67 29.3994V21.5933H628.581" stroke="black" stroke-width="1.5" stroke-linecap="round" stroke-linejoin="round"/>
<path d="M618.219 21.5931H622.129" stroke="black" stroke-width="1.5" stroke-linecap="round" stroke-linejoin="round"/>
<path d="M612.178 25.5931V28.304C610.715 28.304 609.53 27.1186 609.53 25.6563C609.53 25.575 609.533 25.4947 609.541 25.4153C609.689 23.7711 612.178 23.9423 612.178 25.5931Z" fill="#EDEEEF"/>
<path d="M612.178 28.304C610.715 28.304 609.53 27.1185 609.53 25.6562" stroke="black" stroke-width="1.5" stroke-linecap="round" stroke-linejoin="round"/>
<path d="M622.96 31.3239C621.48 31.3239 620.28 30.1241 620.28 28.644" stroke="#DC911B" stroke-width="1.5" stroke-linecap="round" stroke-linejoin="round"/>
<path d="M629.875 36.8862L610.93 41.5426" stroke="black" stroke-width="1.5" stroke-linecap="round" stroke-linejoin="round"/>
<path d="M624.671 29.4058L622.96 29.8262" stroke="black" stroke-width="1.5" stroke-linecap="round" stroke-linejoin="round"/>
<path d="M589.215 68.928V110.297L647.82 124.701V78.6273C647.82 62.2902 636.667 48.0638 620.802 44.1645H620.802C613.194 42.2945 605.148 44.0257 598.982 48.8596C592.817 53.6934 589.215 61.0932 589.215 68.928V68.928Z" fill="#DC911B"/>
<path d="M638.29 112.64C638.29 112.64 645.5 230.315 625.137 286.029" stroke="black" stroke-width="1.5" stroke-linecap="round" stroke-linejoin="round"/>
<path d="M613.287 23.5255C613.287 23.5255 616.5 23.3469 624.671 17.3647V19.6861C624.671 19.6861 629.359 18.3468 630.698 16.0254" stroke="black" stroke-width="1.5" stroke-linecap="round" stroke-linejoin="round"/>
<path d="M631.126 15.1166C631.126 15.1166 641.234 1.73972 613.287 11.0786L616.323 7.7666C616.323 7.7666 601.412 12.5938 610.162 24.2651" stroke="black" stroke-width="1.5" stroke-linecap="round" stroke-linejoin="round"/>
<path d="M629.597 25.1031C629.597 25.1031 633.296 20.1351 631.811 14.0552" stroke="black" stroke-width="1.5" stroke-linecap="round" stroke-linejoin="round"/>
<path d="M594.711 53.1064C594.711 53.1064 558.234 82.544 563.948 120.044C569.663 157.545 607.41 160.045 607.41 160.045L613.288 149.688L589.215 110.297L612.178 86.8297" stroke="black" stroke-width="1.5" stroke-linecap="round" stroke-linejoin="round"/>
<path d="M607.41 160.045L619.469 138.795" stroke="black" stroke-width="1.5" stroke-linecap="round" stroke-linejoin="round"/>
<path d="M636.992 53.1064C636.992 53.1064 649.187 65.8771 655.14 80.163" stroke="black" stroke-width="1.5" stroke-linecap="round" stroke-linejoin="round"/>
<path d="M646.816 109.449C646.816 109.449 651.33 118.973 663.711 122.069C676.006 125.142 689.005 70.2231 661.441 34.9506C660.851 34.1805 660.024 33.6256 659.088 33.3713C657.387 32.9303 655.195 33.5557 656.101 40.401C656.101 40.401 652.282 39.049 654.187 43.4155C656.092 47.782 659.631 64.7213 652.98 75.5376" stroke="black" stroke-width="1.5" stroke-linecap="round" stroke-linejoin="round"/>
<rect x="636.5" y="81" width="617" height="197" fill="#FFE0B0"/>
<path d="M1208.42 121.345C1208.42 121.345 1140.5 247.44 1286.05 256.065L1293.05 261.995V220.487L1244.16 205.393L1242.72 105.125" fill="#E2E2E2"/>
<path d="M1243.86 184.6C1232.22 189.429 1223.45 210.542 1223.45 235.857C1223.45 237.128 1223.48 238.388 1223.52 239.637C1235.37 246.888 1251.36 252.309 1272.68 254.877C1273.85 248.605 1274.43 242.237 1274.41 235.857C1274.44 228.513 1273.66 221.189 1272.09 214.016L1244.16 205.393L1243.86 184.6Z" fill="black"/>
<path d="M1217.49 120.463L1259.57 117.581L1267.22 120.697L1270.82 304.475H1231.73L1235.87 297.068L1217.49 120.463Z" fill="#EDEEEF"/>
<path d="M1222.24 32.0821V38.7245C1222.24 43.8606 1225.75 48.3332 1230.74 49.5591L1241.31 52.1571V26.1866L1232.52 24.0264C1230.04 23.4181 1227.43 23.9813 1225.42 25.5538C1223.42 27.1262 1222.24 29.5334 1222.24 32.0821V32.0821Z" fill="#EDEEEF"/>
<path d="M1222.24 38.7246C1222.24 43.8608 1225.75 48.3333 1230.74 49.5592L1241.31 52.1572" stroke="black" stroke-width="1.5" stroke-linecap="round" stroke-linejoin="round"/>
<path d="M1233.01 37.4067C1233.3 37.4067 1233.52 37.1785 1233.52 36.8969C1233.52 36.6154 1233.3 36.3872 1233.01 36.3872C1232.73 36.3872 1232.5 36.6154 1232.5 36.8969C1232.5 37.1785 1232.73 37.4067 1233.01 37.4067Z" fill="black"/>
<path d="M1225.18 37.4067C1225.47 37.4067 1225.69 37.1785 1225.69 36.8969C1225.69 36.6154 1225.47 36.3872 1225.18 36.3872C1224.9 36.3872 1224.68 36.6154 1224.68 36.8969C1224.68 37.1785 1224.9 37.4067 1225.18 37.4067Z" fill="black"/>
<path d="M1227.48 39.9374V32.082H1223.55" stroke="black" stroke-width="1.5" stroke-linecap="round" stroke-linejoin="round"/>
<path d="M1233.97 32.082H1230.04" stroke="black" stroke-width="1.5" stroke-linecap="round" stroke-linejoin="round"/>
<path d="M1240.05 36.1074V38.8353C1241.52 38.8353 1242.72 37.6424 1242.72 36.1709C1242.72 36.0892 1242.71 36.0083 1242.71 35.9284C1242.56 34.2739 1240.05 34.4461 1240.05 36.1074Z" fill="#EDEEEF"/>
<path d="M1240.05 38.8353C1241.52 38.8353 1242.72 37.6424 1242.72 36.1709" stroke="black" stroke-width="1.5" stroke-linecap="round" stroke-linejoin="round"/>
<path d="M1229.63 40.8555C1229.96 41.1863 1230.41 41.3722 1230.88 41.3722C1231.35 41.3722 1231.8 41.1863 1232.13 40.8555" stroke="#DC911B" stroke-width="1.5" stroke-linecap="round" stroke-linejoin="round"/>
<path d="M1227.48 39.9438L1229.2 40.3669" stroke="black" stroke-width="1.5" stroke-linecap="round" stroke-linejoin="round"/>
<path d="M1208.42 79.7152V121.345L1267.4 135.84V89.4757C1267.4 73.0356 1256.17 58.7195 1240.21 54.7956H1240.21C1232.55 52.9138 1224.46 54.656 1218.25 59.5203C1212.05 64.3846 1208.42 71.8311 1208.42 79.7152V79.7152Z" fill="#DC911B"/>
<path d="M1235.87 297.069L1217.49 120.463" stroke="black" stroke-width="1.5" stroke-linecap="round" stroke-linejoin="round"/>
<path d="M1228.34 48.667C1228.34 48.667 1228.34 57.2109 1213.85 56.4415L1210.53 53.1227C1210.53 53.1227 1212.36 15.2929 1238.1 20.2088C1242.16 20.9859 1245.79 23.3952 1247.76 27.0374C1249.97 31.1008 1250.32 36.9999 1241.39 43.3984" stroke="black" stroke-width="1.5" stroke-linecap="round" stroke-linejoin="round"/>
<path d="M1209.28 54.4185C1209.41 54.4185 1212.6 57.7429 1212.6 57.7429" stroke="#DC911B" stroke-width="1.5" stroke-linecap="round" stroke-linejoin="round"/>
<path d="M1222.24 35.5815C1222.24 35.5815 1230.93 33.4252 1233.52 28.124C1233.52 28.124 1236.36 35.4647 1240.05 36.1071" stroke="black" stroke-width="1.5" stroke-linecap="round" stroke-linejoin="round"/>
<path d="M1208.65 56.0811C1208.65 56.0811 1199.48 61.2487 1201.04 73.8277C1201.53 77.9987 1203.63 81.8149 1206.88 84.4696C1208.55 85.874 1210.86 86.2406 1212.89 85.4224C1214.91 84.6042 1216.32 82.7351 1216.54 80.5641C1216.81 78.1162 1217.33 75.6029 1218.29 73.7079C1222.24 65.9209 1210.34 57.7433 1210.34 57.7433" stroke="black" stroke-width="1.5" stroke-linecap="round" stroke-linejoin="round"/>
<path d="M1255.18 62.5791C1255.18 62.5791 1314.01 128.576 1256.87 162.359L1247.52 146.699L1260.82 122.466L1247.52 100.183" stroke="black" stroke-width="1.5" stroke-linecap="round" stroke-linejoin="round"/>
<path d="M1256.87 162.359L1242.29 137.92" stroke="black" stroke-width="1.5" stroke-linecap="round" stroke-linejoin="round"/>
<path d="M1186.55 63.1605C1186.02 60.7957 1186.26 58.324 1187.22 56.102C1189.98 49.6171 1197.54 33.5565 1204.81 33.0533C1213.92 32.4223 1211.05 40.4489 1207.81 42.3656C1206.01 43.5018 1203.7 43.4547 1201.94 42.2458C1201.94 42.2458 1193.21 52.8531 1194.16 56.1426C1194.16 56.1426 1199.19 56.1426 1197.51 60.9346C1196.04 65.1276 1188.43 71.2467 1186.55 63.1605Z" fill="#DC911B"/>
<path d="M1193.79 50.0709C1193.79 50.0709 1200.62 44.2972 1193.79 42.3205C1186.97 40.3438 1171.69 61.5483 1174.21 84.9092C1176.72 108.27 1193.4 123.724 1208.42 110.966" stroke="black" stroke-width="1.5" stroke-linecap="round" stroke-linejoin="round"/>
<path d="M1194.04 65.4941C1194.04 65.4941 1195.15 75.9238 1198.61 82.2133L1202.49 78.8769" stroke="black" stroke-width="1.5" stroke-linecap="round" stroke-linejoin="round"/>
</svg>
