<svg width="486" height="499" viewBox="0 0 486 499" fill="none" xmlns="http://www.w3.org/2000/svg">
<path d="M456.255 498.078H45.5411" stroke="#949494" stroke-width="1.5"/>
<path d="M97.4473 214.514C97.4473 214.514 185.654 337.145 100.188 470.427L98.1203 496.902L61.081 476.557" stroke="#949494"/>
<path d="M1.28356 191.467L2.04947 275.192V497.192H67.3154L60.4147 484.828L82.9787 210.477L1.28356 191.467Z" stroke="#949494"/>
<path d="M35.0041 41.8518V67.5609L66.8523 75.3886V32.003L35.0041 24.1753V41.8518V41.8518Z" stroke="#949494"/>
<path d="M52.9946 50.7471C52.5243 50.7471 52.143 50.3658 52.143 49.8955C52.143 49.4252 52.5243 49.0439 52.9946 49.0439C53.4649 49.0439 53.8461 49.4252 53.8461 49.8955C53.8461 50.3658 53.4649 50.7471 52.9946 50.7471Z" fill="#949494"/>
<path d="M39.9154 50.7471C39.445 50.7471 39.0638 50.3658 39.0638 49.8955C39.0638 49.4252 39.445 49.0439 39.9154 49.0439C40.3857 49.0439 40.767 49.4252 40.767 49.8955C40.767 50.3658 40.3857 50.7471 39.9154 50.7471Z" fill="#949494"/>
<path d="M43.7525 54.9753V41.8521H37.1782" stroke="#949494" stroke-width="1.5"/>
<path d="M54.5989 41.8523H48.0246" stroke="#949494" stroke-width="1.5"/>
<path d="M64.7547 53.1332C65.9352 53.1332 67.0673 52.6642 67.9021 51.8295C68.7368 50.9948 69.2058 49.8626 69.2058 48.6821" stroke="#949494" stroke-width="1.5"/>
<path d="M46.628 58.2106C49.1161 58.2106 51.133 56.1936 51.133 53.7056" stroke="#949494" stroke-width="1.5" stroke-linecap="round" stroke-linejoin="round"/>
<path d="M35.0041 67.5605L66.8523 75.3884" stroke="#949494" stroke-width="1.5"/>
<path d="M43.7525 54.9858L46.628 55.6925" stroke="#949494" stroke-width="1.5" stroke-linecap="round"/>
<path d="M64.2979 47.5075C64.2979 47.5075 58.0938 41.7036 57.9937 36.0999C57.9937 36.0999 34.5781 39.6022 31.0758 38.6016L33.5774 33.7984C30.7643 32.7025 28.0522 31.3632 25.472 29.7957C25.472 29.7957 55.5921 8.78168 69.3013 30.8964C69.3013 30.8964 78.4763 35.2994 68.9855 47.5075" stroke="#949494" stroke-width="1.5"/>
<path d="M1.66743 121.426V190.973L100.189 215.187V137.732C100.189 110.268 81.4389 86.3517 54.7683 79.7965H54.7682C41.9779 76.6529 28.4525 79.5632 18.0872 87.6894C7.72187 95.8156 1.66738 108.255 1.66738 121.426L1.66743 121.426Z" stroke="#949494"/>
<path d="M17.3664 167.687C30.9501 183.307 60.4482 181.597 89.1523 172.761C83.5982 183.705 68.5861 191.55 50.9279 191.55C28.5454 191.55 10.4009 178.95 10.4009 163.406C10.4013 161.953 10.5608 160.504 10.8765 159.086C12.8331 162.103 15.0019 164.978 17.3664 167.687Z" fill="#949494"/>
<path d="M60.8259 484.53L83.3998 209.995" stroke="#949494" stroke-width="1.5"/>
<path d="M7.81274 99.2729C7.81274 99.2729 -12.6563 133.165 17.3668 167.688C47.3898 202.211 155.158 152.077 160.262 127.461C165.365 102.844 161.463 104.946 155.759 110.049C150.055 115.153 147.053 113.952 147.053 113.952C147.053 113.952 146.152 104.345 143.15 107.047C140.148 109.749 139.248 114.852 139.248 114.852L66.8523 134.065L48.8806 104.345" stroke="#949494" stroke-width="1.5"/>
<path d="M71.062 86.4707C71.062 86.4707 97.7936 103.113 108.764 122.942" stroke="#949494" stroke-width="1.5"/>
<path d="M143.051 146.862C143.051 146.862 181.376 150.376 200.589 153.578C219.801 156.78 198.187 160.783 198.187 160.783C198.187 160.783 188.18 175.192 170.969 169.589C170.969 169.589 135.879 186.4 100.189 177.194" stroke="#949494" stroke-width="1.5"/>
<rect width="235.399" height="170.686" transform="matrix(-1 0 0 1 443.945 226.032)" stroke="#949494"/>
<path d="M208.547 226.032V396.718" stroke="#949494" stroke-width="1.5"/>
<path d="M405.725 284.523L407.818 277.488C411.128 266.365 421.354 258.738 432.959 258.738H485L443.945 396.718H208.547L241.929 284.523H405.725Z" stroke="#949494"/>
<path d="M443.945 396.718H208.547" stroke="#949494" stroke-width="1.5"/>
<path d="M208.547 396.718L241.929 284.523H405.725" stroke="#949494" stroke-width="1.5"/>
<path d="M292.27 31.8496H277.927L233.081 76.6957V194.659H358.107V164.516" stroke="#949494"/>
<path d="M358.107 194.659H233.081V76.6958" stroke="#949494" stroke-width="1.5"/>
<path d="M335.861 101.089H283.648" stroke="#949494" stroke-width="1.5"/>
<path d="M335.861 112.083H283.648" stroke="#949494" stroke-width="1.5"/>
<path d="M335.861 123.076H283.648" stroke="#949494" stroke-width="1.5"/>
<path d="M335.861 134.071H309.755" stroke="#949494" stroke-width="1.5"/>
<path d="M277.453 46.4842V164.447H402.479V1.54688H322.59" stroke="#949494" stroke-width="1.5"/>
<path d="M277.453 46.4843L322.299 1.63818V46.4843H277.453V46.4843Z" stroke="#949494"/>
<path d="M366.073 70.8772H313.86" stroke="#949494" stroke-width="1.5"/>
<path d="M366.073 81.8713H313.86" stroke="#949494" stroke-width="1.5"/>
<path d="M366.073 92.8655H313.86" stroke="#949494" stroke-width="1.5"/>
<path d="M366.073 103.859H339.966" stroke="#949494" stroke-width="1.5"/>
</svg>
