<svg width="16" height="14" viewBox="0 0 16 14" fill="none" xmlns="http://www.w3.org/2000/svg">
<g clip-path="url(#clip0_69_2110)">
<path d="M14.4 0.155273H1.6C0.72 0.155273 0.00799999 0.886523 0.00799999 1.78027L0 11.5303C0 12.424 0.72 13.1553 1.6 13.1553H14.4C15.28 13.1553 16 12.424 16 11.5303V1.78027C16 0.886523 15.28 0.155273 14.4 0.155273ZM14.08 3.6084L8.424 7.19965C8.168 7.36215 7.832 7.36215 7.576 7.19965L1.92 3.6084C1.83978 3.56266 1.76954 3.50087 1.71351 3.42677C1.65749 3.35266 1.61685 3.26778 1.59406 3.17726C1.57127 3.08674 1.5668 2.99247 1.58093 2.90015C1.59505 2.80782 1.62747 2.71937 1.67623 2.64014C1.72498 2.56091 1.78906 2.49256 1.86458 2.43921C1.9401 2.38586 2.0255 2.34863 2.1156 2.32977C2.2057 2.31091 2.29863 2.31081 2.38876 2.32948C2.4789 2.34815 2.56437 2.38521 2.64 2.4384L8 5.84277L13.36 2.4384C13.4356 2.38521 13.5211 2.34815 13.6112 2.32948C13.7014 2.31081 13.7943 2.31091 13.8844 2.32977C13.9745 2.34863 14.0599 2.38586 14.1354 2.43921C14.2109 2.49256 14.275 2.56091 14.3238 2.64014C14.3725 2.71937 14.405 2.80782 14.4191 2.90015C14.4332 2.99247 14.4287 3.08674 14.4059 3.17726C14.3832 3.26778 14.3425 3.35266 14.2865 3.42677C14.2305 3.50087 14.1602 3.56266 14.08 3.6084Z" fill="white"/>
</g>
<defs>
<clipPath id="clip0_69_2110">
<rect width="16" height="13" fill="white" transform="translate(0 0.155273)"/>
</clipPath>
</defs>
</svg>
