<svg width="14" height="19" viewBox="0 0 14 19" fill="none" xmlns="http://www.w3.org/2000/svg">
<g clip-path="url(#clip0_69_2114)">
<path d="M6.2806 17.7921C0.983281 10.3868 0 9.62682 0 6.90527C0 3.17734 3.13399 0.155273 7 0.155273C10.866 0.155273 14 3.17734 14 6.90527C14 9.62682 13.0167 10.3868 7.7194 17.7921C7.37177 18.2764 6.6282 18.2763 6.2806 17.7921ZM7 9.71777C8.61084 9.71777 9.91667 8.45858 9.91667 6.90527C9.91667 5.35196 8.61084 4.09277 7 4.09277C5.38916 4.09277 4.08333 5.35196 4.08333 6.90527C4.08333 8.45858 5.38916 9.71777 7 9.71777Z" fill="white"/>
</g>
<defs>
<clipPath id="clip0_69_2114">
<rect width="14" height="18" fill="white" transform="translate(0 0.155273)"/>
</clipPath>
</defs>
</svg>
