<svg width="192" height="75" viewBox="0 0 192 75" fill="none" xmlns="http://www.w3.org/2000/svg">
<g clip-path="url(#clip0_69_1732)">
<path d="M15.48 51.49L22.82 73.89C22.8406 73.9531 22.8458 74.0202 22.8355 74.0857C22.8251 74.1512 22.7993 74.2134 22.7603 74.267C22.7213 74.3207 22.6701 74.3643 22.6109 74.3944C22.5518 74.4245 22.4864 74.4401 22.42 74.44H15.7C15.6087 74.4388 15.5203 74.4079 15.4481 74.352C15.3759 74.2961 15.3239 74.2181 15.3 74.13L14.59 71.5C14.5661 71.4119 14.5141 71.3339 14.4419 71.278C14.3698 71.2221 14.2813 71.1912 14.19 71.19H10.06C9.99593 71.1892 9.93288 71.1737 9.8757 71.1448C9.81852 71.1158 9.76871 71.0742 9.73011 71.0231C9.6915 70.9719 9.66511 70.9126 9.65296 70.8497C9.64081 70.7867 9.64322 70.7219 9.66002 70.66L11.13 65.23C11.1654 65.0952 11.2445 64.976 11.3548 64.891C11.4652 64.8059 11.6007 64.7599 11.74 64.76C11.8351 64.7609 11.9292 64.7402 12.0152 64.6995C12.1012 64.6588 12.1768 64.5992 12.2365 64.5251C12.2961 64.4511 12.3382 64.3644 12.3596 64.2717C12.381 64.1791 12.3812 64.0827 12.36 63.99L11.79 61.42C11.7656 61.3313 11.7128 61.253 11.6397 61.1972C11.5665 61.1415 11.477 61.1112 11.385 61.1112C11.293 61.1112 11.2035 61.1415 11.1304 61.1972C11.0572 61.253 11.0044 61.3313 10.98 61.42L7.54002 74.12C7.51611 74.2081 7.46413 74.2861 7.39195 74.342C7.31977 74.398 7.23133 74.4288 7.14002 74.43H0.420015C0.353663 74.4301 0.288232 74.4145 0.229082 74.3844C0.169932 74.3543 0.118747 74.3107 0.0797205 74.257C0.0406941 74.2034 0.0149367 74.1412 0.00455874 74.0757C-0.00581918 74.0102 -0.000522319 73.9431 0.0200153 73.88L7.36002 51.48C7.38749 51.3956 7.441 51.3221 7.51286 51.27C7.58473 51.2179 7.67125 51.1899 7.76002 51.19H15.08C15.17 51.1905 15.2575 51.22 15.3295 51.274C15.4015 51.328 15.4543 51.4037 15.48 51.49Z" fill="#BD5519"/>
<path d="M29 51.2H35.5801C35.6558 51.1999 35.7302 51.2203 35.7954 51.259C35.8605 51.2977 35.914 51.3534 35.9501 51.42L40.1 59.3C40.136 59.3669 40.1893 59.4228 40.2545 59.4617C40.3196 59.5007 40.3941 59.5213 40.4701 59.5213C40.546 59.5213 40.6205 59.5007 40.6856 59.4617C40.7508 59.4228 40.8041 59.3669 40.84 59.3L45 51.42C45.0361 51.3534 45.0896 51.2977 45.1547 51.259C45.2199 51.2203 45.2943 51.1999 45.37 51.2H52C52.1048 51.1995 52.206 51.2383 52.2837 51.3086C52.3615 51.3789 52.4101 51.4757 52.42 51.58L54.2401 74C54.2442 74.0576 54.2364 74.1155 54.2171 74.17C54.1979 74.2244 54.1676 74.2744 54.1282 74.3166C54.0887 74.3588 54.041 74.3925 53.988 74.4154C53.935 74.4384 53.8778 74.4502 53.82 74.45H47.0601C46.9537 74.4503 46.8511 74.4102 46.7732 74.3378C46.6952 74.2654 46.6476 74.1661 46.64 74.06L46 63.51C45.994 63.4169 45.9572 63.3284 45.8953 63.2585C45.8334 63.1887 45.75 63.1414 45.6583 63.1242C45.5666 63.107 45.4718 63.1209 45.3888 63.1636C45.3058 63.2063 45.2394 63.2754 45.2001 63.36L41.16 72C41.1089 72.1079 41.0282 72.1989 40.9273 72.2627C40.8263 72.3264 40.7094 72.3602 40.59 72.36H40.44C40.3207 72.3602 40.2038 72.3264 40.1028 72.2627C40.0019 72.1989 39.9212 72.1079 39.87 72L35.7901 63.34C35.7507 63.2554 35.6843 63.1863 35.6013 63.1436C35.5183 63.1009 35.4235 63.087 35.3318 63.1042C35.2401 63.1214 35.1567 63.1687 35.0948 63.2385C35.0329 63.3084 34.9961 63.3969 34.9901 63.49L34.39 74C34.3825 74.1061 34.3349 74.2054 34.2569 74.2778C34.179 74.3502 34.0764 74.3903 33.9701 74.39H27.21C27.1054 74.3878 27.0054 74.3466 26.9295 74.2744C26.8537 74.2023 26.8075 74.1044 26.8 74L28.63 51.6C28.6341 51.5002 28.6736 51.4052 28.7414 51.3319C28.8092 51.2586 28.9009 51.2118 29 51.2Z" fill="#BD5519"/>
<path d="M60.0001 51.2H66.3801C66.4915 51.2 66.5983 51.2443 66.6771 51.323C66.7558 51.4018 66.8001 51.5086 66.8001 51.62V59.12C66.8014 59.2113 66.8325 59.2997 66.8886 59.3717C66.9447 59.4438 67.0227 59.4956 67.1108 59.5193C67.199 59.5431 67.2925 59.5374 67.3772 59.5033C67.4618 59.4691 67.5331 59.4083 67.5801 59.33L72.3101 51.4C72.3479 51.3386 72.4008 51.2879 72.4639 51.2529C72.5269 51.2178 72.5979 51.1996 72.6701 51.2H78.4401C78.5515 51.2 78.6583 51.2443 78.7371 51.323C78.8158 51.4018 78.8601 51.5086 78.8601 51.62V74C78.8601 74.0552 78.8492 74.1098 78.8281 74.1607C78.807 74.2117 78.7761 74.258 78.7371 74.297C78.6981 74.336 78.6518 74.3669 78.6008 74.388C78.5498 74.4092 78.4952 74.42 78.4401 74.42H72.1001C72.0449 74.42 71.9903 74.4092 71.9393 74.388C71.8884 74.3669 71.8421 74.336 71.8031 74.297C71.7641 74.258 71.7332 74.2117 71.712 74.1607C71.6909 74.1098 71.6801 74.0552 71.6801 74V66.38C71.6787 66.2887 71.6476 66.2004 71.5916 66.1283C71.5355 66.0563 71.4575 66.0044 71.3693 65.9807C71.2811 65.957 71.1877 65.9626 71.103 65.9968C71.0183 66.0309 70.9471 66.0917 70.9001 66.17L66.1701 74.23C66.1335 74.2933 66.0811 74.346 66.018 74.3828C65.9548 74.4197 65.8832 74.4394 65.8101 74.44H60.0001C59.8887 74.44 59.7819 74.3958 59.7031 74.317C59.6243 74.2382 59.5801 74.1314 59.5801 74.02V51.62C59.5801 51.5086 59.6243 51.4018 59.7031 51.323C59.7819 51.2443 59.8887 51.2 60.0001 51.2Z" fill="#BD5519"/>
<path d="M104.38 74.19H99.27C99.0393 74.19 98.818 74.0984 98.6548 73.9352C98.4917 73.7721 98.4 73.5508 98.4 73.32V58.43C98.4 58.1993 98.3084 57.978 98.1452 57.8148C97.9821 57.6517 97.7608 57.56 97.53 57.56H92.38C92.1493 57.56 91.928 57.6517 91.7648 57.8148C91.6017 57.978 91.51 58.1993 91.51 58.43V73.32C91.51 73.5508 91.4184 73.7721 91.2552 73.9352C91.0921 74.0984 90.8708 74.19 90.64 74.19H85.53C85.4158 74.19 85.3027 74.1675 85.1971 74.1238C85.0915 74.0801 84.9956 74.016 84.9148 73.9352C84.8341 73.8544 84.77 73.7585 84.7263 73.653C84.6825 73.5474 84.66 73.4343 84.66 73.32V52.9C84.66 52.7858 84.6825 52.6726 84.7263 52.5671C84.77 52.4615 84.8341 52.3656 84.9148 52.2848C84.9956 52.2041 85.0915 52.14 85.1971 52.0963C85.3027 52.0525 85.4158 52.03 85.53 52.03H104.37C104.601 52.03 104.822 52.1217 104.985 52.2848C105.148 52.448 105.24 52.6693 105.24 52.9V73.32C105.24 73.549 105.15 73.7688 104.989 73.9317C104.828 74.0946 104.609 74.1874 104.38 74.19Z" fill="#3E3E3D"/>
<path d="M130.08 59.56C130.139 60.545 129.979 61.5309 129.613 62.4471C129.246 63.3633 128.682 64.1872 127.96 64.86C126.221 66.2097 124.047 66.875 121.85 66.73H119.85C119.619 66.73 119.398 66.8217 119.235 66.9848C119.072 67.148 118.98 67.3693 118.98 67.6V73.33C118.98 73.4443 118.958 73.5574 118.914 73.6629C118.87 73.7685 118.806 73.8644 118.725 73.9452C118.644 74.026 118.549 74.0901 118.443 74.1338C118.337 74.1775 118.224 74.2 118.11 74.2H113C112.886 74.2 112.773 74.1775 112.667 74.1338C112.562 74.0901 112.466 74.026 112.385 73.9452C112.304 73.8644 112.24 73.7685 112.196 73.6629C112.153 73.5574 112.13 73.4443 112.13 73.33V52.9C112.126 52.7833 112.146 52.6669 112.187 52.5578C112.229 52.4488 112.293 52.3493 112.374 52.2653C112.455 52.1813 112.552 52.1146 112.66 52.069C112.768 52.0234 112.883 51.9999 113 52H121.33C124.27 52 126.5 52.7067 128.02 54.12C128.733 54.8261 129.286 55.6773 129.642 56.6159C129.997 57.5545 130.147 58.5586 130.08 59.56ZM123.08 59.39C123.08 57.8033 122.12 57.01 120.2 57.01H120.14C119.819 57.01 119.511 57.1375 119.284 57.3644C119.058 57.5913 118.93 57.8991 118.93 58.22V60.57C118.93 60.8909 119.058 61.1987 119.284 61.4256C119.511 61.6525 119.819 61.78 120.14 61.78C122.093 61.7733 123.07 60.9733 123.07 59.38L123.08 59.39Z" fill="#3E3E3D"/>
<path d="M159.46 63.11C159.505 64.6328 159.238 66.1488 158.678 67.5655C158.117 68.9821 157.274 70.2698 156.2 71.35C153.683 73.5948 150.428 74.8354 147.055 74.8354C143.682 74.8354 140.427 73.5948 137.91 71.35C136.836 70.2698 135.993 68.9821 135.432 67.5655C134.872 66.1488 134.605 64.6328 134.65 63.11C134.605 61.5871 134.872 60.0712 135.432 58.6545C135.993 57.2379 136.836 55.9502 137.91 54.87C140.427 52.6251 143.682 51.3846 147.055 51.3846C150.428 51.3846 153.683 52.6251 156.2 54.87C157.274 55.9502 158.117 57.2379 158.678 58.6545C159.238 60.0712 159.505 61.5871 159.46 63.11ZM152.34 63.11C152.366 62.3722 152.241 61.6368 151.973 60.9489C151.705 60.2611 151.299 59.6353 150.78 59.11C149.785 58.1346 148.448 57.5883 147.055 57.5883C145.662 57.5883 144.325 58.1346 143.33 59.11C142.324 60.1892 141.765 61.6097 141.765 63.085C141.765 64.5603 142.324 65.9808 143.33 67.06C144.325 68.0354 145.662 68.5817 147.055 68.5817C148.448 68.5817 149.785 68.0354 150.78 67.06C151.293 66.5405 151.695 65.9229 151.963 65.2442C152.231 64.5654 152.359 63.8395 152.34 63.11Z" fill="#3E3E3D"/>
<path d="M191.78 62.14C191.78 65.4733 190.62 67.8967 188.3 69.41C186.312 70.5615 184.034 71.1137 181.74 71H181.37V73.27C181.37 73.3842 181.347 73.4974 181.304 73.6029C181.26 73.7085 181.196 73.8044 181.115 73.8852C181.034 73.966 180.938 74.03 180.833 74.0738C180.727 74.1175 180.614 74.14 180.5 74.14H175.42C175.306 74.14 175.193 74.1175 175.087 74.0738C174.982 74.03 174.886 73.966 174.805 73.8852C174.724 73.8044 174.66 73.7085 174.616 73.6029C174.573 73.4974 174.55 73.3842 174.55 73.27V71H174.18C171.881 71.098 169.603 70.5284 167.62 69.36C165.287 67.8667 164.12 65.4433 164.12 62.09C164.12 58.7367 165.287 56.32 167.62 54.84C169.606 53.6828 171.883 53.1205 174.18 53.22H174.55V51.61C174.55 51.4957 174.573 51.3826 174.616 51.2771C174.66 51.1715 174.724 51.0756 174.805 50.9948C174.886 50.914 174.982 50.8499 175.087 50.8062C175.193 50.7625 175.306 50.74 175.42 50.74H180.5C180.731 50.74 180.952 50.8316 181.115 50.9948C181.278 51.158 181.37 51.3793 181.37 51.61V53.27H181.74C184.037 53.1705 186.314 53.7328 188.3 54.89C190.62 56.3833 191.78 58.8 191.78 62.14ZM174.78 65.81V58.47H174.28C173.394 58.4398 172.528 58.731 171.84 59.29C171.103 60.0557 170.691 61.0772 170.691 62.14C170.691 63.2028 171.103 64.2242 171.84 64.99C172.524 65.5558 173.393 65.8511 174.28 65.82L174.78 65.81ZM185.27 62.14C185.309 61.6072 185.225 61.0726 185.026 60.577C184.826 60.0814 184.517 59.6378 184.12 59.28C183.432 58.721 182.566 58.4298 181.68 58.46H181.18V65.81H181.68C182.558 65.8418 183.418 65.554 184.1 65C184.494 64.6404 184.803 64.1965 185.002 63.7013C185.201 63.2062 185.286 62.6725 185.25 62.14H185.27Z" fill="#3E3E3D"/>
<path d="M11.0001 39.73V41.15H10.0001V40.54H7.56006V37.44H8.56006V39.73H9.56006V37.44H10.5601V39.73H11.0001Z" fill="#3E3E3D"/>
<path d="M15.2701 39.75V40.54H12.6901V37.44H15.2101V38.23H13.7201V38.59H15.0001V39.34H13.7201V39.75H15.2701Z" fill="#3E3E3D"/>
<path d="M20.07 37.44V40.54H19V39.4H18V40.54H17V37.44H18V38.54H19V37.44H20.07Z" fill="#3E3E3D"/>
<path d="M24.59 38.25H23.68V40.54H22.68V38.25H21.77V37.44H24.61L24.59 38.25Z" fill="#3E3E3D"/>
<path d="M28.5101 37.58C28.7119 37.6662 28.8839 37.8098 29.0048 37.9929C29.1257 38.176 29.1902 38.3906 29.1902 38.61C29.1902 38.8295 29.1257 39.044 29.0048 39.2272C28.8839 39.4103 28.7119 39.5538 28.5101 39.64C28.2727 39.7389 28.0171 39.7866 27.7601 39.78H27.3101V40.54H26.3101V37.44H27.8001C28.0437 37.439 28.2851 37.4866 28.5101 37.58ZM28.0101 38.88C28.0797 38.8074 28.1186 38.7107 28.1186 38.61C28.1186 38.5094 28.0797 38.4126 28.0101 38.34C27.9179 38.272 27.8041 38.24 27.6901 38.25H27.3101V39H27.6901C27.8046 38.9991 27.9148 38.9564 28.0001 38.88H28.0101Z" fill="#3E3E3D"/>
<path d="M34.19 40.4C33.9296 40.2666 33.7111 40.0639 33.5585 39.8142C33.4059 39.5645 33.3252 39.2776 33.3252 38.985C33.3252 38.6924 33.4059 38.4055 33.5585 38.1558C33.7111 37.9062 33.9296 37.7035 34.19 37.57C34.4692 37.4294 34.7774 37.3561 35.09 37.3561C35.4026 37.3561 35.7109 37.4294 35.99 37.57C36.2504 37.7035 36.4689 37.9062 36.6215 38.1558C36.7741 38.4055 36.8549 38.6924 36.8549 38.985C36.8549 39.2776 36.7741 39.5645 36.6215 39.8142C36.4689 40.0639 36.2504 40.2666 35.99 40.4C35.7109 40.5407 35.4026 40.614 35.09 40.614C34.7774 40.614 34.4692 40.5407 34.19 40.4ZM35.44 39.67C35.5466 39.6047 35.6331 39.5113 35.69 39.4C35.7513 39.272 35.7831 39.1319 35.7831 38.99C35.7831 38.8481 35.7513 38.708 35.69 38.58C35.6331 38.4688 35.5466 38.3753 35.44 38.31C35.3336 38.2486 35.2129 38.2162 35.09 38.2162C34.9671 38.2162 34.8464 38.2486 34.74 38.31C34.6338 38.3757 34.5474 38.4691 34.49 38.58C34.4288 38.708 34.397 38.8481 34.397 38.99C34.397 39.1319 34.4288 39.272 34.49 39.4C34.5474 39.511 34.6338 39.6043 34.74 39.67C34.8464 39.7315 34.9671 39.7638 35.09 39.7638C35.2129 39.7638 35.3336 39.7315 35.44 39.67Z" fill="#3E3E3D"/>
<path d="M38.55 37.44H41.2401V38.23H39.57V38.59H40.3101C40.6188 38.5694 40.9255 38.654 41.18 38.83C41.2817 38.9148 41.3618 39.0224 41.4139 39.1441C41.4661 39.2657 41.4887 39.3979 41.48 39.53C41.4852 39.6724 41.4561 39.8139 41.3952 39.9426C41.3343 40.0714 41.2434 40.1837 41.1301 40.27C40.8382 40.4735 40.4846 40.569 40.1301 40.54H38.55V37.44ZM40.1101 39.81C40.1956 39.8136 40.2799 39.789 40.35 39.74C40.3791 39.7178 40.4024 39.6889 40.418 39.6559C40.4337 39.6228 40.4412 39.5865 40.44 39.55C40.44 39.39 40.3301 39.31 40.1101 39.31H39.57V39.81H40.1101Z" fill="#3E3E3D"/>
<path d="M46.14 37.44L44.9 39.78C44.7748 40.0314 44.5893 40.2478 44.36 40.41C44.1517 40.5548 43.9037 40.6316 43.65 40.63C43.4442 40.629 43.2404 40.5882 43.05 40.51L43.29 39.76C43.3942 39.7902 43.5017 39.807 43.61 39.81C43.6759 39.825 43.7442 39.825 43.81 39.81C43.8722 39.7788 43.9267 39.7344 43.97 39.68L42.78 37.49H43.88L44.5 38.8L45.14 37.49L46.14 37.44Z" fill="#3E3E3D"/>
<path d="M50.59 37.44V40.54H49.59V39.54C49.4086 39.5965 49.22 39.6268 49.03 39.63C48.669 39.6473 48.3139 39.5337 48.03 39.31C47.9061 39.1883 47.8098 39.0414 47.7476 38.8792C47.6855 38.717 47.659 38.5433 47.67 38.37V37.44H48.67V38.26C48.6558 38.4101 48.6987 38.5601 48.79 38.68C48.8406 38.7273 48.9006 38.7633 48.9661 38.7857C49.0316 38.8081 49.1011 38.8164 49.17 38.81C49.3166 38.815 49.4627 38.7913 49.6 38.74V37.44H50.59Z" fill="#3E3E3D"/>
<path d="M55 39.75V40.54H52.47V37.44H55V38.23H53.5V38.59H54.81V39.34H53.5V39.75H55Z" fill="#3E3E3D"/>
<path d="M59.86 37.44V40.54H58.86V39.4H57.86V40.54H56.86V37.44H57.86V38.54H58.86V37.44H59.86Z" fill="#3E3E3D"/>
<path d="M61.73 37.44H62.73V39.05L63.8 37.44H64.8V40.54H63.8V38.93L62.74 40.54H61.74L61.73 37.44Z" fill="#3E3E3D"/>
<path d="M69.4101 37.44V40.54H68.4101V39.8H68.1L67.63 40.54H66.53L67.14 39.65C66.9509 39.5646 66.7909 39.4255 66.68 39.25C66.5699 39.066 66.5144 38.8544 66.52 38.64C66.5157 38.4136 66.5783 38.191 66.7 38C66.8217 37.8139 66.9957 37.6678 67.2 37.58C67.4399 37.4767 67.6989 37.4255 67.96 37.43L69.4101 37.44ZM67.58 38.62C67.5741 38.6749 67.5813 38.7305 67.601 38.7821C67.6206 38.8337 67.6522 38.88 67.6932 38.917C67.7342 38.9541 67.7833 38.981 67.8367 38.9954C67.89 39.0098 67.946 39.0114 68 39H68.4101V38.23H68C67.71 38.25 67.57 38.37 67.57 38.62H67.58Z" fill="#3E3E3D"/>
<path d="M126.94 37.55H127.94V39.11L128.94 37.55H129.94V40.55H128.94V39L127.94 40.56H126.94V37.55Z" fill="#3E3E3D"/>
<path d="M135 40.43C134.748 40.3006 134.537 40.1043 134.389 39.8626C134.241 39.6209 134.163 39.3432 134.163 39.06C134.163 38.7768 134.241 38.4991 134.389 38.2574C134.537 38.0156 134.748 37.8193 135 37.69C135.271 37.5589 135.569 37.4908 135.87 37.4908C136.171 37.4908 136.469 37.5589 136.74 37.69C136.992 37.8193 137.203 38.0156 137.351 38.2574C137.499 38.4991 137.577 38.7768 137.577 39.06C137.577 39.3432 137.499 39.6209 137.351 39.8626C137.203 40.1043 136.992 40.3006 136.74 40.43C136.469 40.561 136.171 40.6291 135.87 40.6291C135.569 40.6291 135.271 40.561 135 40.43ZM136.21 39.72C136.312 39.6568 136.395 39.5669 136.45 39.46C136.51 39.3352 136.541 39.1985 136.541 39.06C136.541 38.9215 136.51 38.7847 136.45 38.66C136.395 38.5531 136.312 38.4632 136.21 38.4C136.107 38.3403 135.989 38.3089 135.87 38.3089C135.751 38.3089 135.633 38.3403 135.53 38.4C135.428 38.4636 135.345 38.5534 135.29 38.66C135.23 38.7847 135.198 38.9215 135.198 39.06C135.198 39.1985 135.23 39.3352 135.29 39.46C135.345 39.5666 135.428 39.6564 135.53 39.72C135.633 39.7797 135.751 39.8111 135.87 39.8111C135.989 39.8111 136.107 39.7797 136.21 39.72Z" fill="#3E3E3D"/>
<path d="M142.55 39.77V41.15H141.62V40.56H139.21V37.56H140.21V39.78H141.21V37.55H142.21V39.77H142.55Z" fill="#3E3E3D"/>
<path d="M146.68 39.79V40.55H144.18V37.55H146.63V38.31H145.18V38.66H146.45V39.39H145.18V39.79H146.68Z" fill="#3E3E3D"/>
<path d="M151.35 37.55V40.55H150.35V39.45H149.41V40.56H148.41V37.56H149.41V38.63H150.35V37.55H151.35Z" fill="#3E3E3D"/>
<path d="M155.27 39L156.16 40.55H155L154.42 39.46H154.14V40.55H153.14V37.55H154.14V38.67H154.45L155.09 37.55H156.15L155.27 39Z" fill="#3E3E3D"/>
<path d="M157.66 37.55H158.66V39.11L159.66 37.55H160.66V40.55H159.66V39L158.66 40.56H157.66V37.55Z" fill="#3E3E3D"/>
<path d="M167.22 37.69C167.419 37.7711 167.589 37.9095 167.708 38.0876C167.828 38.2657 167.892 38.4754 167.892 38.69C167.892 38.9046 167.828 39.1143 167.708 39.2925C167.589 39.4706 167.419 39.609 167.22 39.69C166.989 39.7878 166.741 39.8356 166.49 39.83H166.06V40.57H165.06V37.57H166.51C166.752 37.561 166.994 37.6018 167.22 37.69ZM166.74 38.95C166.806 38.8796 166.843 38.7866 166.843 38.69C166.843 38.5934 166.806 38.5005 166.74 38.43C166.651 38.3627 166.541 38.3307 166.43 38.34H166.06V39H166.43C166.536 39.0211 166.646 39.0034 166.74 38.95Z" fill="#3E3E3D"/>
<path d="M169.46 37.55H170.46V39.11L171.46 37.55H172.46V40.55H171.46V39L170.46 40.56H169.46V37.55Z" fill="#3E3E3D"/>
<path d="M174.93 40.43C174.682 40.3032 174.474 40.1091 174.33 39.87C174.188 39.6219 174.113 39.3409 174.113 39.055C174.113 38.7691 174.188 38.4881 174.33 38.24C174.474 38.0008 174.682 37.8068 174.93 37.68C175.196 37.5441 175.491 37.4755 175.79 37.48C176.058 37.4739 176.324 37.525 176.57 37.63C176.795 37.7292 176.991 37.8841 177.14 38.08L176.5 38.65C176.426 38.5435 176.327 38.4563 176.212 38.3955C176.097 38.3346 175.97 38.3019 175.84 38.3C175.746 38.2955 175.652 38.311 175.564 38.3455C175.476 38.3799 175.396 38.4326 175.33 38.5C175.203 38.6553 175.134 38.8496 175.134 39.05C175.134 39.2504 175.203 39.4447 175.33 39.6C175.396 39.6674 175.476 39.72 175.564 39.7545C175.652 39.789 175.746 39.8045 175.84 39.8C175.97 39.7981 176.097 39.7654 176.212 39.7045C176.327 39.6437 176.426 39.5564 176.5 39.45L177.14 40.02C176.992 40.2162 176.795 40.3711 176.57 40.47C176.324 40.575 176.058 40.6261 175.79 40.62C175.492 40.6276 175.197 40.5624 174.93 40.43Z" fill="#3E3E3D"/>
<path d="M180.83 39L181.72 40.55H180.58L180 39.47H179.72V40.56H178.72V37.56H179.72V38.68H180L180.64 37.56H181.7L180.83 39Z" fill="#3E3E3D"/>
<path d="M183.86 40.43C183.608 40.3006 183.397 40.1043 183.249 39.8626C183.101 39.6209 183.023 39.3432 183.023 39.06C183.023 38.7768 183.101 38.4991 183.249 38.2574C183.397 38.0156 183.608 37.8193 183.86 37.69C184.131 37.5589 184.429 37.4908 184.73 37.4908C185.031 37.4908 185.329 37.5589 185.6 37.69C185.852 37.8193 186.063 38.0156 186.211 38.2574C186.359 38.4991 186.437 38.7768 186.437 39.06C186.437 39.3432 186.359 39.6209 186.211 39.8626C186.063 40.1043 185.852 40.3006 185.6 40.43C185.329 40.561 185.031 40.6291 184.73 40.6291C184.429 40.6291 184.131 40.561 183.86 40.43ZM185.07 39.72C185.172 39.6568 185.255 39.5669 185.31 39.46C185.37 39.3352 185.402 39.1985 185.402 39.06C185.402 38.9215 185.37 38.7847 185.31 38.66C185.255 38.5531 185.172 38.4632 185.07 38.4C184.967 38.3403 184.849 38.3089 184.73 38.3089C184.611 38.3089 184.493 38.3403 184.39 38.4C184.288 38.4636 184.205 38.5534 184.15 38.66C184.09 38.7847 184.059 38.9215 184.059 39.06C184.059 39.1985 184.09 39.3352 184.15 39.46C184.205 39.5666 184.288 39.6564 184.39 39.72C184.493 39.7797 184.611 39.8111 184.73 39.8111C184.849 39.8111 184.967 39.7797 185.07 39.72Z" fill="#3E3E3D"/>
<path d="M190.78 39.25C190.871 39.3783 190.917 39.533 190.91 39.69C190.914 39.8149 190.887 39.9389 190.831 40.0506C190.775 40.1624 190.692 40.2584 190.59 40.33C190.322 40.4994 190.007 40.5798 189.69 40.56H188.08V37.56H189.61C189.914 37.5424 190.217 37.6154 190.48 37.77C190.578 37.8312 190.658 37.9169 190.712 38.0187C190.767 38.1204 190.794 38.2347 190.79 38.35C190.794 38.4836 190.759 38.6155 190.69 38.73C190.619 38.8438 190.519 38.9369 190.4 39C190.548 39.0448 190.68 39.1317 190.78 39.25ZM189.08 38.71H189.51C189.68 38.71 189.76 38.64 189.76 38.49C189.76 38.34 189.68 38.26 189.51 38.26H189.08V38.71ZM189.89 39.61C189.89 39.46 189.81 39.38 189.64 39.38H189.08V39.85H189.64C189.81 39.85 189.89 39.77 189.89 39.61Z" fill="#3E3E3D"/>
<path d="M99.89 0H81.47L99.89 22.7L109.11 11.35L99.89 0Z" fill="#6F6F6E"/>
<path d="M81.47 0L63.04 22.7H81.47L90.68 11.35L81.47 0Z" fill="#3E3E3D"/>
<path opacity="0.2" d="M99.89 0H81.47L85.05 1.83H99.28L107 11.35H109.11L99.89 0Z" fill="white"/>
<g style="mix-blend-mode:multiply">
<path d="M81.47 0L90.68 11.35L88.56 13.96L81.47 0Z" fill="#B1B1B0"/>
</g>
<path d="M92.94 19.34L90.54 16.39L88.17 19.31L90.56 22.26L92.94 19.34Z" fill="#BD5519"/>
<path d="M93.94 22.61L90.56 26.77L87.18 22.6L81.34 29.8L90.56 41.15H108.98L93.94 22.61Z" fill="#BD5519"/>
<path d="M108.98 18.45L90.56 41.15H108.98L127.41 18.45H108.98Z" fill="#DC911B"/>
<path opacity="0.2" d="M108.98 18.45L109.6 20.28H123.82L108.37 39.32L108.98 41.15L127.41 18.45H108.98Z" fill="white"/>
<g style="mix-blend-mode:multiply">
<path d="M90.56 41.15L99.77 29.8L97.65 27.18L90.56 41.15Z" fill="#B1B1B0"/>
</g>
</g>
<defs>
<clipPath id="clip0_69_1732">
<rect width="191.78" height="74.84" fill="white"/>
</clipPath>
</defs>
</svg>
