<svg width="115" height="206" viewBox="0 0 115 206" fill="none" xmlns="http://www.w3.org/2000/svg">
<path d="M61 45C61 45 66.3518 49.8143 74 56" stroke="black" stroke-width="1.5" stroke-linecap="round" stroke-linejoin="round"/>
<path d="M70.4942 113.778C70.4942 113.778 90 157.5 79 205" stroke="black" stroke-width="1.5"/>
<path d="M61.5 113C61.5 113 66 147 57.5 203.5M15.5 203.5C15.5 203.5 13.8961 131.066 13.8961 99.8669" stroke="black" stroke-width="1.5"/>
<path d="M51.7164 14.2008V28.9698L33.4203 33.4668V8.54281L51.7164 4.04614V14.2008Z" fill="#EDEEEF"/>
<path d="M41.3812 19.3107C41.6513 19.3107 41.8704 19.0916 41.8704 18.8215C41.8704 18.5513 41.6513 18.3323 41.3812 18.3323C41.111 18.3323 40.892 18.5513 40.892 18.8215C40.892 19.0916 41.111 19.3107 41.3812 19.3107Z" fill="black"/>
<path d="M48.8949 19.3107C49.1651 19.3107 49.3841 19.0916 49.3841 18.8215C49.3841 18.5513 49.1651 18.3323 48.8949 18.3323C48.6247 18.3323 48.4057 18.5513 48.4057 18.8215C48.4057 19.0916 48.6247 19.3107 48.8949 19.3107Z" fill="black"/>
<path d="M46.6907 21.7395V14.2007H50.4671" stroke="black" stroke-width="1.5" stroke-linecap="round" stroke-linejoin="round"/>
<path d="M40.4596 14.201H44.2364" stroke="black" stroke-width="1.5" stroke-linecap="round" stroke-linejoin="round"/>
<path d="M34.6254 18.0635V20.6816C33.2132 20.6816 32.0684 19.5367 32.0684 18.1245C32.0684 18.0461 32.0718 17.9685 32.0788 17.8918C32.2221 16.3039 34.6254 16.4692 34.6254 18.0635Z" fill="#EDEEEF"/>
<path d="M34.6254 20.6816C33.2132 20.6816 32.0684 19.5367 32.0684 18.1245" stroke="black" stroke-width="1.5" stroke-linecap="round" stroke-linejoin="round"/>
<path d="M45.0387 23.5983C43.6093 23.5983 42.4506 22.4396 42.4506 21.0103" stroke="black" stroke-width="1.5" stroke-linecap="round" stroke-linejoin="round"/>
<path d="M51.7165 28.9702L33.4203 33.4671" stroke="black" stroke-width="1.5" stroke-linecap="round" stroke-linejoin="round"/>
<path d="M46.6906 21.7456L45.0387 22.1516" stroke="black" stroke-width="1.5" stroke-linecap="round" stroke-linejoin="round"/>
<path d="M34.6254 17.6992C34.6254 17.6992 36.9572 13.4453 37.0722 11.5482L37.7045 14.2006C37.7045 14.2006 42.016 12.8704 44.6603 9.5937V12.9662C44.6603 12.9662 49.7468 11.8931 51.0551 8.50146V11.6632C51.0551 11.6632 52.6509 10.571 53.0533 8.90387" stroke="black" stroke-width="1.5" stroke-linecap="round" stroke-linejoin="round"/>
<path d="M51.7164 14.5376C51.7164 14.5376 61.0124 4.67568 48.4057 1.9482C39.3716 -0.00631681 34.6254 4.8225 34.6254 4.8225C34.6254 4.8225 31.496 6.31714 30.2313 8.84652C28.9666 11.3759 28.4463 17.8718 33.4203 22.7006" stroke="black" stroke-width="1.5" stroke-linecap="round" stroke-linejoin="round"/>
<path d="M13.8961 59.9145V99.8671L70.4942 113.778V69.2817C70.4942 53.5041 59.723 39.7649 44.4014 35.9991H44.4013C37.0536 34.1932 29.2835 35.8651 23.3289 40.5334C17.3743 45.2017 13.8961 52.3481 13.8961 59.9145V59.9145Z" stroke="black"/>
<path d="M51.7165 90.0813C51.7165 90.0813 51.748 57.176 70.4942 56.9655C89.2405 56.7551 82.7168 35.2756 82.7168 35.2756L113.441 42.2345C113.441 42.2345 118.492 71.6965 92.6076 80.5301C79.38 85.0442 85.04 115.828 85.04 115.828L51.0552 111.891V107.354" stroke="black" stroke-width="1.5"/>
<path d="M18.7443 45.2314C18.7443 45.2314 0.964771 68.5169 1.19472 95.8803C1.42466 123.244 43.7343 120.714 59.8304 98.8695C59.8304 98.8695 70.4078 91.5113 68.7982 89.9017C67.1886 88.2921 60.1423 89.831 60.1423 89.831C60.1423 89.831 61.44 86.1076 59.4855 87.0274C57.5309 87.9472 54.9113 89.8688 54.9113 89.8688L29.2213 91.5755L35.0787 67.5972" stroke="black" stroke-width="1.5" stroke-linecap="round" stroke-linejoin="round"/>
<path d="M18.7443 45.2314C18.7443 45.2314 0.964771 68.5169 1.19472 95.8803C1.42466 123.244 43.7343 120.714 59.8304 98.8695C59.8304 98.8695 70.4078 91.5113 68.7982 89.9017C67.1886 88.2921 60.1423 89.831 60.1423 89.831C60.1423 89.831 61.44 86.1076 59.4855 87.0274C57.5309 87.9472 54.9113 89.8688 54.9113 89.8688L29.2213 91.5755L35.0787 67.5972" stroke="black" stroke-width="1.5" stroke-linecap="round" stroke-linejoin="round"/>
<path d="M14.3585 114.212V133.59C41.7789 127.15 55.5371 103.699 55.5371 103.699L55.5362 103.699C44.3408 114.265 26.5184 118.403 14.3585 114.212Z" fill="black"/>
<path d="M79.778 109.849C79.778 109.849 99.6107 115.368 103.577 106.228C107.544 97.0874 100.473 71.9086 100.473 71.9086C100.473 71.9086 102.542 67.4247 101.508 66.2175C100.473 65.0103 99.4382 66.2175 99.4382 66.2175C99.4382 66.2175 97.7999 58.2844 95.2992 58.888C92.7986 59.4916 90.9448 71.7684 90 81.4998" stroke="black" stroke-width="1.5" stroke-linecap="round" stroke-linejoin="round"/>
</svg>
