<svg width="581" height="536" viewBox="0 0 581 536" fill="none" xmlns="http://www.w3.org/2000/svg">
<path d="M174.749 78.9376L181.617 72.2429" stroke="#949494" stroke-width="1.5"/>
<path d="M167.882 62.2633L163.636 70.8645L154.145 72.2433L161.013 78.9379L159.392 88.391L167.882 83.9279L176.37 88.391" stroke="#949494" stroke-width="1.5"/>
<path d="M136.846 78.9376L143.714 72.2429" stroke="#949494" stroke-width="1.5"/>
<path d="M129.978 62.2633L125.734 70.8645L116.242 72.2433L123.11 78.9379L121.489 88.391L129.978 83.9279L138.468 88.391" stroke="#949494" stroke-width="1.5"/>
<path d="M98.9432 78.9376L105.811 72.2429" stroke="#949494" stroke-width="1.5"/>
<path d="M92.0746 62.2633L87.8302 70.8645L78.3389 72.2433L85.2071 78.9379L83.5851 88.391L92.0746 83.9279L100.564 88.391" stroke="#949494" stroke-width="1.5"/>
<path d="M61.0403 78.9376L67.9083 72.2429" stroke="#949494" stroke-width="1.5"/>
<path d="M54.1721 62.2633L49.927 70.8645L40.4357 72.2433L47.3039 78.9379L45.6826 88.391L54.1721 83.9279L62.6616 88.391" stroke="#949494" stroke-width="1.5"/>
<path d="M23.1372 78.9376L30.0053 72.2429" stroke="#949494" stroke-width="1.5"/>
<path d="M16.269 62.2633L12.0246 70.8645L2.53329 72.2433L9.40075 78.9379L7.77948 88.391L16.269 83.9279L24.7585 88.391" stroke="#949494" stroke-width="1.5"/>
<path d="M276.688 471.091L305.809 445.328H349.907V370.986H407.317V278.978L479.704 343.016V465.203H517.978V519.327H533.786V504.214H562.075V534.44" stroke="#949494"/>
<path d="M580.38 534.441H161.867" stroke="#949494" stroke-width="1.5"/>
<path d="M172.53 221.173C172.53 221.173 135.762 348.21 119.957 501.35L108.466 508.995L158.627 532.912L206.61 398.275" stroke="#949494"/>
<path d="M188.095 225.2L218.964 520.304L210.77 534.581M272.62 245.325L278.878 534.581" stroke="#949494"/>
<path d="M202.758 80.5283C202.758 89.2715 208.727 96.8852 217.218 98.972L235.211 103.395" stroke="#949494" stroke-width="1.5"/>
<path d="M221.09 78.2848C221.57 78.2848 221.958 77.8963 221.958 77.417C221.958 76.9378 221.57 76.5493 221.09 76.5493C220.611 76.5493 220.223 76.9378 220.223 77.417C220.223 77.8963 220.611 78.2848 221.09 78.2848Z" fill="#949494"/>
<path d="M207.763 78.2848C208.242 78.2848 208.631 77.8963 208.631 77.417C208.631 76.9378 208.242 76.5493 207.763 76.5493C207.284 76.5493 206.895 76.9378 206.895 77.417C206.895 77.8963 207.284 78.2848 207.763 78.2848Z" fill="#949494"/>
<path d="M211.673 82.593V69.2206H206.545" stroke="#949494" stroke-width="1.5"/>
<path d="M222.725 69.2209H216.026" stroke="#949494" stroke-width="1.5"/>
<path d="M233.074 80.7163C235.579 80.7163 237.61 78.6856 237.61 76.1807" stroke="#949494" stroke-width="1.5"/>
<path d="M215.336 84.1555C216.509 85.3285 218.411 85.3285 219.583 84.1555" stroke="#949494" stroke-width="1.5" stroke-linecap="round" stroke-linejoin="round"/>
<path d="M211.673 82.6041L214.603 83.3242" stroke="#949494" stroke-width="1.5" stroke-linecap="round"/>
<path d="M172.53 150.306V221.173L272.921 245.847V166.921C272.921 138.935 253.816 114.565 226.639 107.886H226.639C213.605 104.682 199.823 107.648 189.261 115.928C178.699 124.209 172.53 136.885 172.53 150.306V150.306Z" stroke="#949494"/>
<path d="M202.071 77.4167L192.129 71.9657C192.129 71.9657 206.66 30.3632 236.485 48.7173C266.31 67.0713 235.211 88.0255 235.211 88.0255" stroke="#949494" stroke-width="1.5"/>
<path d="M201.357 70.2323C201.357 70.2323 221.092 67.0512 227.964 57.4038C227.964 57.4038 225.169 71.3725 233.453 74.7791" stroke="#949494" stroke-width="1.5"/>
<path d="M249.418 118.903C249.418 118.903 283.441 142.829 298.124 176.225C298.124 176.225 292.923 114.792 300.265 104.697C304.141 99.3681 308.524 106.602 308.524 106.602C308.524 106.602 327.796 98.5791 328.408 101.638C329.02 104.697 317.701 116.321 317.701 116.321C317.701 116.321 334.22 192.367 321.372 214.086C308.524 235.805 243.368 192.49 243.368 192.49" stroke="#949494" stroke-width="1.5"/>
<path d="M250.387 196.907C250.387 196.907 250.524 226.731 272.922 239.418V209.259L250.387 196.907Z" fill="#949494"/>
<path d="M189.674 115.613C189.674 115.613 159.449 138.013 153.739 160.561C153.739 160.561 144.358 99.5333 139.056 100.943C133.753 102.352 132.53 106.602 132.53 106.602C132.53 106.602 115.807 97.8538 113.36 100.918C110.913 103.983 128.043 120.706 128.043 120.706C128.043 120.706 117.68 193.636 129.675 203.503C154.962 224.304 172.529 194.53 172.529 194.53" stroke="#949494" stroke-width="1.5"/>
<path d="M508.034 112.21L407.86 112.21L382.905 138.26V112.21H374.842L341.824 112.21V0.63689L508.034 0.63689V112.21Z" stroke="#949494"/>
<rect x="462.806" y="61.5314" width="10.2167" height="10.2167" transform="rotate(-180 462.806 61.5314)" stroke="#949494"/>
<rect x="430.038" y="61.5314" width="10.2166" height="10.2167" transform="rotate(-180 430.038 61.5314)" stroke="#949494"/>
<rect x="397.27" y="61.5314" width="10.2167" height="10.2167" transform="rotate(-180 397.27 61.5314)" stroke="#949494"/>
</svg>
