<svg width="15" height="16" viewBox="0 0 15 16" fill="none" xmlns="http://www.w3.org/2000/svg">
<g clip-path="url(#clip0_69_2107)">
<path d="M10.7204 9.58924H10.0429L9.80274 9.35767C10.6723 8.34912 11.1502 7.06153 11.1492 5.72989C11.1492 4.62733 10.8223 3.54954 10.2097 2.6328C9.59719 1.71606 8.72655 1.00155 7.70793 0.579618C6.6893 0.157689 5.56843 0.0472929 4.48706 0.262391C3.40569 0.477488 2.41239 1.00842 1.63277 1.78804C0.853145 2.56767 0.322215 3.56097 0.107117 4.64234C-0.107981 5.7237 0.00241539 6.84457 0.424345 7.8632C0.846274 8.88183 1.56079 9.75246 2.47753 10.365C3.39427 10.9776 4.47206 11.3045 5.57462 11.3045C6.9554 11.3045 8.2247 10.7985 9.2024 9.95802L9.43396 10.1982V10.8757L13.7221 15.1553L15 13.8774L10.7204 9.58924ZM5.57462 9.58924C3.43911 9.58924 1.71527 7.86539 1.71527 5.72989C1.71527 3.59438 3.43911 1.87054 5.57462 1.87054C7.71012 1.87054 9.43396 3.59438 9.43396 5.72989C9.43396 7.86539 7.71012 9.58924 5.57462 9.58924Z" fill="#BFBFBD"/>
</g>
<defs>
<clipPath id="clip0_69_2107">
<rect width="15" height="15" fill="white" transform="translate(0 0.155273)"/>
</clipPath>
</defs>
</svg>
