<svg width="1939" height="1758" viewBox="0 0 1939 1758" fill="none" xmlns="http://www.w3.org/2000/svg">
<path d="M608.945 990.028C649.126 990.028 681.699 957.455 681.699 917.274C681.699 877.094 649.126 844.521 608.945 844.521C568.764 844.521 536.191 877.094 536.191 917.274C536.191 957.455 568.764 990.028 608.945 990.028Z" fill="#EDEEEF"/>
<path fill-rule="evenodd" clip-rule="evenodd" d="M608.945 990.028C649.126 990.028 681.699 957.455 681.699 917.274C681.699 877.094 649.126 844.521 608.945 844.521C568.764 844.521 536.191 877.094 536.191 917.274C536.191 957.455 568.764 990.028 608.945 990.028Z" stroke="black" stroke-width="1.5"/>
<rect x="582.497" y="826.155" width="52.8956" height="182.238" fill="#EDEEEF"/>
<path d="M516.809 894.619L543.257 848.81L701.08 939.929L674.632 985.738L516.809 894.619Z" fill="#EDEEEF"/>
<path d="M543.257 985.738L516.81 939.929L674.632 848.81L701.08 894.619L543.257 985.738Z" fill="#EDEEEF"/>
<path d="M608.945 935.463C618.99 935.463 627.133 927.32 627.133 917.274C627.133 907.229 618.99 899.086 608.945 899.086C598.9 899.086 590.756 907.229 590.756 917.274C590.756 927.32 598.9 935.463 608.945 935.463Z" fill="#DC911B"/>
<path d="M590.757 917.274C590.757 907.229 598.9 899.086 608.945 899.086" stroke="black" stroke-width="1.5"/>
<path d="M550.702 1120.93C544.432 1055.38 505.504 958.402 505.504 958.402L471.476 937.4L475.237 989.837L480.308 1039.89L523.344 1136.7L562.672 1124.35L550.702 1120.93Z" fill="#E2E2E2"/>
<path d="M495.364 945.569C495.364 945.569 503.035 1070.77 481.369 1130.05L485.895 1136.7H447.359C447.359 1136.7 443.149 977.449 443.149 943.076L495.364 945.569Z" fill="#EDEEEF"/>
<path d="M481.684 848.696V864.968L461.527 869.922V842.463L481.684 837.509V848.696V848.696Z" fill="#EDEEEF"/>
<path d="M470.297 854.326C470.595 854.326 470.836 854.085 470.836 853.787C470.836 853.489 470.595 853.248 470.297 853.248C469.999 853.248 469.758 853.489 469.758 853.787C469.758 854.085 469.999 854.326 470.297 854.326Z" fill="black"/>
<path d="M478.575 854.326C478.873 854.326 479.114 854.085 479.114 853.787C479.114 853.489 478.873 853.248 478.575 853.248C478.278 853.248 478.036 853.489 478.036 853.787C478.036 854.085 478.278 854.326 478.575 854.326Z" fill="black"/>
<path d="M476.146 857.002V848.696H480.307" stroke="black" stroke-width="1.5"/>
<path d="M469.282 848.696H473.443" stroke="black" stroke-width="1.5"/>
<path d="M462.854 852.952V855.836C461.298 855.836 460.037 854.575 460.037 853.019C460.037 852.933 460.041 852.847 460.048 852.763C460.206 851.013 462.854 851.195 462.854 852.952Z" fill="#EDEEEF"/>
<path d="M462.854 855.836C461.298 855.836 460.037 854.575 460.037 853.019" stroke="black" stroke-width="1.5"/>
<path d="M474.327 859.05C472.752 859.05 471.476 857.773 471.476 856.198" stroke="#FF6498" stroke-width="1.5" stroke-linecap="round" stroke-linejoin="round"/>
<path d="M481.684 864.968L461.527 869.922" stroke="black" stroke-width="1.5"/>
<path d="M476.147 857.009L474.327 857.456" stroke="black" stroke-width="1.5" stroke-linecap="round"/>
<path d="M482.368 841.633C482.368 841.633 477.349 845.37 467.342 844.23C467.342 844.23 467.342 850.828 463.795 852.849" stroke="black" stroke-width="1.5"/>
<path d="M482.368 850.12C482.368 850.12 490.543 839.48 478.721 836.503C466.898 833.527 461.452 839.353 461.452 839.353C461.452 839.353 450.269 841.19 462.13 861.647" stroke="black" stroke-width="1.5"/>
<path d="M443.149 899.06V943.076L505.504 958.402V909.38C505.504 891.997 493.637 876.861 476.757 872.712H476.757C468.662 870.722 460.102 872.564 453.541 877.707C446.981 882.85 443.149 890.724 443.149 899.06V899.06Z" fill="#DC911B"/>
<path d="M495.364 945.569C495.364 945.569 503.035 1070.77 481.369 1130.05" stroke="black" stroke-width="1.5"/>
<path d="M449.695 881.38C449.695 881.38 415.723 926.452 429.685 953.037C443.647 979.622 511.005 939.61 511.765 932.517C512.525 925.424 496.683 929.224 496.683 929.224C496.683 929.224 498.592 916.304 490.485 928.97L460.037 932.264L469.916 908.45" stroke="black" stroke-width="1.5"/>
<path d="M463.351 924.276L460.037 932.264L482.862 929.795C477.556 927.014 470.832 925.053 463.351 924.276Z" fill="black"/>
<path d="M443.338 961.767C443.39 965.169 443.451 968.837 443.52 972.729C459.606 972.597 480.523 963.898 489.964 954.582L489.968 954.583C490.088 954.465 490.203 954.346 490.319 954.227C490.35 954.195 490.382 954.164 490.413 954.132C490.572 953.968 490.726 953.805 490.877 953.641C490.905 953.612 490.933 953.582 490.96 953.553C491.113 953.386 491.26 953.22 491.405 953.054C491.428 953.027 491.453 953 491.476 952.973C491.622 952.804 491.763 952.634 491.9 952.465C491.92 952.441 491.94 952.417 491.959 952.393C492.099 952.22 492.234 952.047 492.365 951.874C492.379 951.854 492.395 951.834 492.41 951.815C492.543 951.637 492.67 951.46 492.794 951.283C492.804 951.267 492.816 951.252 492.827 951.236C492.952 951.055 493.072 950.875 493.186 950.695C493.194 950.683 493.202 950.67 493.21 950.658C493.327 950.474 493.438 950.29 493.543 950.106L493.557 950.082C493.665 949.895 493.766 949.709 493.862 949.522L493.87 949.507C493.967 949.317 494.058 949.128 494.142 948.939L494.145 948.934C494.588 947.983 494.863 946.962 494.958 945.917C479.957 954.657 458.139 963.765 443.338 961.767Z" fill="black"/>
<path d="M487.369 929.307L487.871 927.77C489.089 924.047 492.272 921.307 496.135 920.658L517.055 917.14C520.436 916.572 523.776 918.343 525.202 921.46V921.46C525.271 921.611 525.431 921.697 525.594 921.673L569.272 915.158L569.823 913.286C570.053 912.507 570.815 912.011 571.62 912.117L580.462 913.276C581.234 913.378 581.812 914.036 581.812 914.815V915.88C581.812 916.518 581.422 917.09 580.829 917.324L573.377 920.258C572.367 920.656 571.216 920.349 570.538 919.501L569.652 918.394L525.941 925.963C525.828 925.982 525.73 926.053 525.677 926.154L525.512 926.463C522.669 931.808 517.542 935.563 511.588 936.66L507.569 937.4" stroke="black" stroke-width="1.5"/>
<path d="M485.122 875.853C485.122 875.853 502.962 883.433 529.182 920.631" stroke="black" stroke-width="1.5"/>
<path d="M505.504 946.957C505.504 946.957 535.831 957.597 544.191 949.744C552.552 941.89 555.085 920.631 555.085 920.631" stroke="black" stroke-width="1.5"/>
<path d="M555.085 917.274C555.085 917.274 556.921 899.014 556.731 893.694C556.731 893.694 559.871 895.404 562.671 894.454C562.671 894.454 564.521 897.494 565.851 897.304C567.181 897.114 566.611 890.844 561.481 884.384C556.351 877.924 533.499 877.965 526.78 917.274" stroke="black" stroke-width="1.5"/>
<path d="M452.841 1093.48C451.181 1088.83 446.321 1094.97 446.321 1094.97C446.321 1094.97 452.177 1082.53 446.321 1079.71C443.432 1078.32 441.912 1079.95 441.112 1081.97C444.109 1063.88 444.755 1028.99 432.661 1027.78C419.45 1026.45 423.97 1059.96 423.97 1059.96C423.97 1059.96 420.32 1050.34 415.674 1054.65C411.029 1058.97 419.988 1087.18 419.988 1087.18C418.992 1084.19 413.683 1081.87 411.692 1087.18C409.701 1092.49 417.333 1103.77 417.333 1103.77L443.549 1108.08C443.549 1108.08 454.5 1098.13 452.841 1093.48Z" fill="black"/>
<path d="M450.89 1135.96H413.351L405.05 1102.41H459.191L450.89 1135.96V1135.96Z" fill="#DC911B"/>
<path d="M371.5 1135.96H496.683" stroke="black" stroke-width="1.5"/>
<path d="M405.05 1102.41H459.191" stroke="black" stroke-width="1.5"/>
<path d="M754.415 1135.96H616.696L669.497 1018.42H754.415V1135.96V1135.96Z" fill="black"/>
<rect x="559.729" y="1119.17" width="89.8164" height="16.7906" fill="#EDEEEF"/>
<rect x="574.727" y="1102.38" width="89.8165" height="16.7908" fill="#EDEEEF"/>
<rect x="589.723" y="1085.59" width="89.8165" height="16.7908" fill="#EDEEEF"/>
<rect x="604.72" y="1068.8" width="89.8164" height="16.7906" fill="#EDEEEF"/>
<rect x="619.718" y="1052" width="89.8165" height="16.7907" fill="#EDEEEF"/>
<rect x="634.715" y="1035.21" width="89.8163" height="16.7907" fill="#EDEEEF"/>
<rect x="649.712" y="1018.42" width="89.8164" height="16.7907" fill="#EDEEEF"/>
<path d="M559.73 1119.17H649.546V1135.96H559.73" stroke="black" stroke-width="1.5"/>
<path d="M574.727 1102.38H664.543V1119.17H574.727" stroke="black" stroke-width="1.5"/>
<path d="M589.724 1085.59H679.54V1102.38H589.724" stroke="black" stroke-width="1.5"/>
<path d="M604.72 1068.8H694.537V1085.59H604.72" stroke="black" stroke-width="1.5"/>
<path d="M619.718 1052H709.534V1068.8H619.718" stroke="black" stroke-width="1.5"/>
<path d="M634.715 1035.21H724.531V1052" stroke="black" stroke-width="1.5"/>
<path d="M649.712 1018.42H739.529V1035.21H649.712" stroke="black" stroke-width="1.5"/>
<path d="M554.401 1135.96H759.744" stroke="black" stroke-width="1.5"/>
<path d="M738.33 31.7538C708.567 31.7538 683.098 19.0273 672.625 1.00012C662.152 19.0273 636.683 31.7538 606.92 31.7538C602.635 31.7553 598.353 31.4868 594.102 30.9498V129.358C594.102 152.638 606.522 174.149 626.683 185.789L672.625 212.314L718.567 185.789C738.728 174.149 751.148 152.638 751.148 129.358V30.9498C746.897 31.4868 742.615 31.7553 738.33 31.7538Z" fill="#EDEEEF"/>
<path d="M718.568 185.789C738.729 174.149 751.149 152.638 751.148 129.357V30.9498C746.897 31.4867 742.616 31.7552 738.33 31.7538C708.568 31.7538 683.098 19.0273 672.625 1V212.314L718.568 185.789Z" fill="#D6D6D6"/>
<path d="M672.625 212.314L718.568 185.789C738.729 174.149 751.149 152.637 751.148 129.357V30.9497C746.897 31.4867 742.616 31.7552 738.33 31.7538C708.568 31.7538 683.098 19.0273 672.625 1" stroke="black" stroke-width="1.5"/>
<path d="M608.19 303.827H584.418V293.77H560.128V281.883L542.041 265.881H514.651V219.706H478.992V162.558L434.032 202.333V278.225H410.259V311.843H400.44V302.456H382.869V321.23H620.076V314.343L608.19 303.827V303.827Z" fill="#F4F4F4"/>
<path d="M371.5 321.23H631.446" stroke="black" stroke-width="1.5"/>
<rect x="481.742" y="231.274" width="3.24777" height="2.87314" fill="white"/>
<rect x="489.645" y="231.274" width="3.24777" height="2.87314" fill="white"/>
<rect x="497.548" y="231.274" width="3.24774" height="2.87314" fill="white"/>
<rect x="481.742" y="239.021" width="3.24777" height="2.87323" fill="white"/>
<rect x="489.645" y="239.021" width="3.24777" height="2.87323" fill="white"/>
<rect x="497.548" y="239.021" width="3.24774" height="2.87323" fill="white"/>
<rect x="481.742" y="246.768" width="3.24777" height="2.87314" fill="white"/>
<rect x="489.645" y="246.768" width="3.24777" height="2.87314" fill="white"/>
<rect x="497.548" y="246.768" width="3.24774" height="2.87314" fill="white"/>
<rect x="481.742" y="254.514" width="3.24777" height="2.87311" fill="white"/>
<rect x="489.645" y="254.514" width="3.24777" height="2.87311" fill="white"/>
<rect x="497.548" y="254.514" width="3.24774" height="2.87311" fill="white"/>
<rect x="481.742" y="262.261" width="3.24777" height="2.87317" fill="white"/>
<rect x="489.645" y="262.261" width="3.24777" height="2.87317" fill="white"/>
<rect x="497.548" y="262.261" width="3.24774" height="2.87317" fill="white"/>
<rect x="481.742" y="270.008" width="3.24777" height="2.8732" fill="white"/>
<rect x="489.645" y="270.008" width="3.24777" height="2.8732" fill="white"/>
<rect x="497.548" y="270.008" width="3.24774" height="2.8732" fill="white"/>
<rect x="481.742" y="277.754" width="3.24777" height="2.8732" fill="white"/>
<rect x="489.645" y="277.754" width="3.24777" height="2.8732" fill="white"/>
<rect x="497.548" y="277.754" width="3.24774" height="2.8732" fill="white"/>
<rect x="481.742" y="285.501" width="3.24777" height="2.87314" fill="white"/>
<rect x="489.645" y="285.501" width="3.24777" height="2.87314" fill="white"/>
<rect x="497.548" y="285.501" width="3.24774" height="2.87314" fill="white"/>
<rect x="481.742" y="293.248" width="3.24777" height="2.8732" fill="white"/>
<rect x="489.645" y="293.248" width="3.24777" height="2.8732" fill="white"/>
<rect x="497.548" y="293.248" width="3.24774" height="2.8732" fill="white"/>
<path d="M551.55 131.358L521.282 126.654C521.282 126.654 498.979 233.064 510.948 312.45L507.417 320.28H547.52L558.907 199.191L551.55 131.358Z" fill="#E2E2E2"/>
<path d="M531.422 129.146C531.422 129.146 523.751 254.351 545.417 313.631L540.891 320.28H579.427C579.427 320.28 583.637 161.027 583.637 126.654L531.422 129.146Z" fill="#EDEEEF"/>
<path d="M531.422 129.146C531.422 129.146 523.751 254.351 545.417 313.631L540.891 320.28" stroke="black" stroke-width="1.5"/>
<path d="M558.907 32.2739V48.5455L538.75 53.4997V26.0404L558.907 21.0862V32.2739V32.2739Z" fill="#EDEEEF"/>
<path d="M547.52 37.9035C547.818 37.9035 548.059 37.6622 548.059 37.3645C548.059 37.0669 547.818 36.8256 547.52 36.8256C547.223 36.8256 546.981 37.0669 546.981 37.3645C546.981 37.6622 547.223 37.9035 547.52 37.9035Z" fill="black"/>
<path d="M555.798 37.9035C556.096 37.9035 556.337 37.6622 556.337 37.3645C556.337 37.0669 556.096 36.8256 555.798 36.8256C555.501 36.8256 555.259 37.0669 555.259 37.3645C555.259 37.6622 555.501 37.9035 555.798 37.9035Z" fill="black"/>
<path d="M553.369 40.5797V32.2738H557.53" stroke="black" stroke-width="1.5"/>
<path d="M546.505 32.2739H550.666" stroke="black" stroke-width="1.5"/>
<path d="M540.077 36.5294V39.4138C538.522 39.4138 537.26 38.1525 537.26 36.5966C537.26 36.5102 537.264 36.4247 537.272 36.3402C537.43 34.5908 540.077 34.773 540.077 36.5294Z" fill="#EDEEEF"/>
<path d="M540.077 39.4138C538.522 39.4138 537.26 38.1526 537.26 36.5967" stroke="black" stroke-width="1.5"/>
<path d="M551.55 42.6271C549.975 42.6271 548.698 41.3505 548.698 39.7758" stroke="#DC911B" stroke-width="1.5" stroke-linecap="round" stroke-linejoin="round"/>
<path d="M558.907 48.5453L538.75 53.4996" stroke="black" stroke-width="1.5"/>
<path d="M553.37 40.5861L551.55 41.0334" stroke="black" stroke-width="1.5" stroke-linecap="round"/>
<path d="M521.282 82.6374V126.654L583.637 141.98V92.9574C583.637 75.5749 571.77 60.4381 554.89 56.2893H554.89C546.795 54.2997 538.235 56.1416 531.674 61.2848C525.114 66.4279 521.282 74.3013 521.282 82.6373L521.282 82.6374Z" fill="#DC911B"/>
<path d="M558.907 30.9138C558.907 30.2281 566.348 18.0681 548.059 17.8147C529.77 17.5614 538.669 35.1165 538.669 35.1165" stroke="black" stroke-width="1.5"/>
<path d="M540.077 33.0464C540.077 33.0464 542.753 29.0564 542.943 27.4414C542.943 27.4414 556.028 27.6314 558.178 24.5914" stroke="black" stroke-width="1.5"/>
<path d="M537.447 68.6474L528.504 115.222L531.797 123.835L540.077 116.742L539.524 68.988L542.437 64.808H535.47L537.447 68.6474V68.6474Z" fill="black"/>
<path d="M571.044 64.808C571.044 64.808 644.783 136.501 565.363 181.721L556.87 168.421L574.103 123.835L557.53 100.781" stroke="black" stroke-width="1.5"/>
<path d="M565.364 181.721L548.863 155.881" stroke="black" stroke-width="1.5"/>
<path d="M526.119 67.1597C526.119 67.1597 489.929 123.282 514.663 165.865" stroke="black" stroke-width="1.5"/>
<path d="M640.362 111.048L645.065 106.346L669.055 130.336L664.353 135.039L640.362 111.048Z" fill="#DC911B"/>
<path d="M711.711 78.2756L716.413 82.9779L664.353 135.039L659.65 130.336L711.711 78.2756Z" fill="#DC911B"/>
<path d="M440.621 2.79373C429.605 2.77416 420.66 11.6882 420.64 22.7038L460.531 22.7748C460.551 11.7592 451.637 2.81333 440.621 2.79373Z" fill="#EDEEEF"/>
<path d="M482.172 11.4418C475.891 11.4306 470.791 16.5128 470.78 22.7931L493.523 22.8336C493.528 19.8177 492.335 16.9231 490.207 14.7867C488.078 12.6504 485.187 11.4472 482.172 11.4418V11.4418Z" fill="#EDEEEF"/>
<path d="M460.568 1.91739C449.049 1.89692 439.694 11.2185 439.674 22.7377L481.388 22.8119C481.409 11.2927 472.087 1.93788 460.568 1.91739Z" fill="#EDEEEF"/>
<path d="M416.975 22.6974L498.964 22.8433" stroke="black" stroke-width="1.5"/>
<path d="M481.096 46.5036C490.226 46.4873 497.641 53.876 497.657 63.0066L464.593 63.0654C464.576 53.9348 471.965 46.5198 481.096 46.5036V46.5036Z" fill="#EDEEEF"/>
<path d="M446.655 53.6716C451.861 53.6624 456.089 57.8749 456.098 63.0805L437.247 63.114C437.242 60.6142 438.231 58.215 439.995 56.4442C441.76 54.6734 444.156 53.6761 446.655 53.6716Z" fill="#EDEEEF"/>
<path d="M464.562 45.7771C474.11 45.7601 481.864 53.4866 481.881 63.0346L447.304 63.0961C447.287 53.5481 455.014 45.7941 464.562 45.7771V45.7771Z" fill="#EDEEEF"/>
<path d="M500.695 63.0011L432.736 63.122" stroke="black" stroke-width="1.5"/>
<path d="M695.427 238.369C692.764 235.923 690.738 232.865 689.522 229.46C686.505 221.122 678.588 215.568 669.721 215.568C660.854 215.568 652.937 221.122 649.919 229.46C648.704 232.865 646.677 235.923 644.015 238.369C637.079 244.694 635.167 254.845 639.325 263.26C643.484 271.675 652.71 276.321 661.947 274.653C667.088 273.725 672.353 273.725 677.494 274.653C686.734 276.33 695.968 271.685 700.128 263.266C704.289 254.847 702.371 244.691 695.427 238.369H695.427Z" fill="#DC911B"/>
<path d="M661.947 274.653C667.088 273.725 672.353 273.725 677.494 274.653C683.635 275.762 689.951 274.091 694.741 270.092C699.531 266.093 702.302 260.176 702.307 253.937" stroke="black" stroke-width="1.5"/>
<path d="M627.554 321.23H711.887" stroke="black" stroke-width="1.5"/>
<path d="M669.72 260.045V321.23" stroke="black" stroke-width="1.5"/>
<path d="M678.652 251.113L669.721 260.045L660.789 251.113" stroke="black" stroke-width="1.5"/>
<path d="M634.449 274.902C632.96 273.534 631.827 271.825 631.148 269.921C629.46 265.259 625.034 262.154 620.076 262.154C615.119 262.154 610.692 265.259 609.005 269.921C608.326 271.825 607.193 273.534 605.704 274.902C601.826 278.438 600.757 284.114 603.082 288.819C605.407 293.523 610.566 296.121 615.73 295.189C618.604 294.67 621.548 294.67 624.423 295.189C629.589 296.126 634.751 293.529 637.078 288.822C639.404 284.115 638.331 278.437 634.449 274.902V274.902Z" fill="#DC911B"/>
<path d="M615.73 295.188C618.604 294.669 621.548 294.669 624.423 295.188C627.856 295.808 631.388 294.874 634.066 292.639C636.744 290.403 638.293 287.095 638.296 283.606" stroke="black" stroke-width="1.5"/>
<path d="M620.076 287.021V321.23" stroke="black" stroke-width="1.5"/>
<path d="M625.07 282.027L620.076 287.021L615.083 282.027" stroke="black" stroke-width="1.5"/>
<path d="M1308.88 530.895L1276.75 520.671L1275.73 724.522H1312.87L1308.88 715.602C1326.84 651.195 1308.88 530.895 1308.88 530.895Z" fill="#DC911B"/>
<path d="M1299.6 656.216C1299.6 608.471 1289.91 569.766 1277.95 569.766C1277.46 569.769 1276.97 569.835 1276.5 569.964L1275.73 724.521H1291.22C1296.32 708.705 1299.6 683.992 1299.6 656.216Z" fill="black"/>
<path d="M1298.28 533.387C1298.28 533.387 1305.96 658.592 1284.29 717.872L1288.82 724.521H1250.28C1250.28 724.521 1246.52 571.205 1246.52 536.833L1298.28 533.387Z" fill="#DC911B"/>
<path d="M1290.1 436.515V452.787L1269.94 457.741V430.282L1290.1 425.327V436.515V436.515Z" fill="#EDEEEF"/>
<path d="M1276.75 445.031C1276.75 445.031 1281.66 443.416 1283.27 445.886C1283.27 445.886 1285.32 443.588 1287.96 445.443" stroke="#DC911B" stroke-width="1.5" stroke-linecap="round" stroke-linejoin="round"/>
<path d="M1278.71 442.145C1279.01 442.145 1279.25 441.903 1279.25 441.606C1279.25 441.308 1279.01 441.067 1278.71 441.067C1278.42 441.067 1278.18 441.308 1278.18 441.606C1278.18 441.903 1278.42 442.145 1278.71 442.145Z" fill="black"/>
<path d="M1286.99 442.145C1287.29 442.145 1287.53 441.903 1287.53 441.606C1287.53 441.308 1287.29 441.067 1286.99 441.067C1286.7 441.067 1286.45 441.308 1286.45 441.606C1286.45 441.903 1286.7 442.145 1286.99 442.145Z" fill="black"/>
<path d="M1284.56 444.821V436.515H1288.73" stroke="black" stroke-width="1.5"/>
<path d="M1277.7 436.515H1281.86" stroke="black" stroke-width="1.5"/>
<path d="M1271.27 440.771V443.655C1269.72 443.655 1268.45 442.394 1268.45 440.838C1268.45 440.751 1268.46 440.666 1268.47 440.581C1268.62 438.832 1271.27 439.014 1271.27 440.771Z" fill="#EDEEEF"/>
<path d="M1271.27 443.655C1269.72 443.655 1268.45 442.394 1268.45 440.838" stroke="black" stroke-width="1.5"/>
<path d="M1282.12 446.868C1281.24 446.868 1280.52 446.155 1280.52 445.275" stroke="#DC911B" stroke-width="1.5" stroke-linecap="round" stroke-linejoin="round"/>
<path d="M1275.73 456.319L1269.94 457.741" stroke="black" stroke-width="1.5"/>
<path d="M1284.56 444.827L1282.74 445.275" stroke="black" stroke-width="1.5" stroke-linecap="round"/>
<path d="M1308.88 486.878V530.895L1246.52 546.221V497.198C1246.52 479.816 1258.39 464.679 1275.27 460.53H1275.27C1283.36 458.541 1291.92 460.383 1298.48 465.526C1305.05 470.669 1308.88 478.542 1308.88 486.878L1308.88 486.878Z" fill="#EDEEEF"/>
<path d="M1272.26 441.605C1272.26 441.605 1269.22 451.586 1276.32 456.779C1282.92 461.614 1293.33 458.783 1290.87 447.473C1290.36 445.113 1290.1 442.705 1290.1 440.29V439.616" stroke="#DC911B" stroke-width="1.5" stroke-linecap="round" stroke-linejoin="round"/>
<path d="M1269.86 439.359C1269.86 439.359 1263.16 427.079 1273.48 424.867C1273.48 424.867 1277.68 419.622 1283.65 422.162C1289.63 424.703 1292.5 422.92 1292.58 425.327C1292.66 427.735 1292.95 431.75 1290.1 433.799" stroke="#DC911B" stroke-width="1.5" stroke-linecap="round" stroke-linejoin="round"/>
<path d="M1274.04 439.358L1275.73 432.459C1275.73 432.459 1288.05 432.649 1290.1 429.292" stroke="#DC911B" stroke-width="1.5" stroke-linecap="round" stroke-linejoin="round"/>
<path d="M1298.28 533.387C1298.28 533.387 1305.96 658.592 1284.29 717.872L1288.82 724.521" stroke="black" stroke-width="1.5"/>
<path d="M1259.3 468.882C1259.3 468.882 1248.83 510.233 1261.5 525.686C1274.16 541.139 1333.44 532.019 1350.67 515.299C1350.67 515.299 1356.75 513.779 1358.02 510.739C1358.02 510.739 1363.84 515.046 1363.59 512.259C1363.34 509.473 1361.31 500.788 1350.92 502.977C1340.54 505.166 1290.1 506.179 1290.1 506.179L1291.24 484.393" stroke="black" stroke-width="1.5"/>
<path d="M1306 474.689C1306 474.689 1313.62 489.455 1312.64 505.544" stroke="black" stroke-width="1.5"/>
<path d="M1310.17 540.44C1310.17 540.44 1330.46 548.501 1339.05 522.907" stroke="black" stroke-width="1.5"/>
<path d="M1319.52 505.285C1319.52 505.285 1341.03 494.177 1344.34 498.833L1347.64 503.488" stroke="black" stroke-width="1.5"/>
<path d="M1520.52 421.468H1382.12V509.842L1337.62 554.344V724.521H1319.52" stroke="black" stroke-width="1.5"/>
<path d="M1342.53 725.471H1578.48" stroke="black" stroke-width="1.5"/>
<path d="M1550.57 723.615C1550.57 723.615 1554.64 716.422 1544.32 714.858C1538.18 713.91 1531.91 714.668 1526.18 717.047C1526.18 717.047 1533.37 708.291 1522.11 704.538C1510.85 700.785 1499.28 709.542 1499.28 709.542C1499.28 709.542 1510.54 688.588 1501.78 687.024C1493.03 685.461 1488.34 694.53 1488.34 694.53C1488.34 694.53 1489.28 668.573 1471.14 667.947C1453 667.322 1454.87 701.098 1454.87 701.098C1454.87 701.098 1447.06 686.086 1433.92 685.461C1420.79 684.835 1427.35 710.606 1427.35 710.606C1427.35 710.606 1424.85 704.538 1416.09 703.912C1407.34 703.287 1407.96 710.626 1407.96 710.626C1407.96 710.626 1396.7 694.843 1384.19 695.781C1371.69 696.719 1377 712.356 1377 712.356C1364.18 711.418 1361.36 725.471 1361.36 725.471H1559.64L1550.57 723.615Z" fill="black"/>
<rect x="1388.12" y="571.363" width="152.029" height="88.7808" fill="black"/>
<rect x="1368.49" y="551.73" width="152.029" height="88.7808" fill="#EDEEEF"/>
<path d="M1520.52 551.778V640.559L1368.49 640.463" stroke="black" stroke-width="1.5"/>
<path d="M1385.63 629.142C1388.78 629.142 1391.33 626.589 1391.33 623.44C1391.33 620.291 1388.78 617.739 1385.63 617.739C1382.48 617.739 1379.93 620.291 1379.93 623.44C1379.93 626.589 1382.48 629.142 1385.63 629.142Z" fill="#D6D6D6"/>
<path d="M1503.38 574.502C1506.53 574.502 1509.08 571.95 1509.08 568.801C1509.08 565.652 1506.53 563.099 1503.38 563.099C1500.23 563.099 1497.68 565.652 1497.68 568.801C1497.68 571.95 1500.23 574.502 1503.38 574.502Z" fill="#D6D6D6"/>
<path d="M1503.38 629.142C1506.53 629.142 1509.08 626.589 1509.08 623.44C1509.08 620.291 1506.53 617.739 1503.38 617.739C1500.23 617.739 1497.68 620.291 1497.68 623.44C1497.68 626.589 1500.23 629.142 1503.38 629.142Z" fill="#D6D6D6"/>
<path d="M1385.63 574.502C1388.78 574.502 1391.33 571.95 1391.33 568.801C1391.33 565.652 1388.78 563.099 1385.63 563.099C1382.48 563.099 1379.93 565.652 1379.93 568.801C1379.93 571.95 1382.48 574.502 1385.63 574.502Z" fill="#D6D6D6"/>
<rect x="1334.41" y="1258.84" width="234.172" height="145.31" fill="#EDEEEF"/>
<rect x="1398.83" y="1250.89" width="105.332" height="18.4989" fill="#FF6498"/>
<path d="M1451.49 1258.43C1455.44 1258.43 1458.64 1255.24 1458.64 1251.31C1458.64 1247.37 1455.44 1244.18 1451.49 1244.18C1447.55 1244.18 1444.35 1247.37 1444.35 1251.31C1444.35 1255.24 1447.55 1258.43 1451.49 1258.43Z" fill="#FF6498"/>
<rect x="1398.83" y="1250.89" width="105.332" height="18.4989" fill="#DC911B"/>
<path d="M1451.49 1258.43C1455.44 1258.43 1458.64 1255.24 1458.64 1251.31C1458.64 1247.37 1455.44 1244.18 1451.49 1244.18C1447.55 1244.18 1444.35 1247.37 1444.35 1251.31C1444.35 1255.24 1447.55 1258.43 1451.49 1258.43Z" fill="#DC911B"/>
<path d="M1504.16 1250.89V1269.38H1398.83" stroke="black" stroke-width="1.5" stroke-linecap="round" stroke-linejoin="round"/>
<path d="M1568.58 1258.84V1404.15H1334.41" stroke="black" stroke-width="1.5" stroke-linecap="round" stroke-linejoin="round"/>
<path d="M1324.75 1500.85H1578.24" stroke="black" stroke-width="1.5" stroke-linecap="round" stroke-linejoin="round"/>
<path d="M1389.04 1404.15L1350.74 1500.85" stroke="black" stroke-width="1.5" stroke-linecap="round" stroke-linejoin="round"/>
<path d="M1513.94 1404.15L1552.25 1500.85" stroke="black" stroke-width="1.5" stroke-linecap="round" stroke-linejoin="round"/>
<path d="M1362.74 1467.3H1540.24" stroke="black" stroke-width="1.5" stroke-linecap="round" stroke-linejoin="round"/>
<path d="M1226.24 1306.64L1245.15 1303.01C1236.41 1308.78 1236.15 1309 1226.6 1317.23L1226.24 1317.54C1226.24 1312.33 1226.24 1309.96 1226.24 1306.64Z" fill="black"/>
<path d="M1275.96 1435.57L1226.24 1412.97C1226.24 1412.97 1227.76 1400.5 1226.24 1382.48L1244.51 1379.48L1244.36 1391.8L1303.61 1424.35L1275.96 1435.57Z" fill="black"/>
<path d="M1226.24 1306.64L1245.15 1303.01C1236.41 1308.78 1236.15 1309 1226.6 1317.23L1226.24 1317.54C1226.24 1312.33 1226.24 1309.96 1226.24 1306.64Z" stroke="black"/>
<path d="M1275.96 1435.57L1226.24 1412.97C1226.24 1412.97 1227.76 1400.5 1226.24 1382.48L1244.51 1379.48L1244.36 1391.8L1303.61 1424.35L1275.96 1435.57Z" stroke="black"/>
<path d="M1321.22 1377.75C1321.22 1377.75 1382.47 1398.06 1405.58 1467.95L1415.72 1472.45L1383.04 1482.6L1330.06 1425.47L1292.63 1400.55" fill="#E2E2E2"/>
<path d="M1343.76 1498.36C1360.06 1386.98 1303.57 1382.56 1303.57 1382.56L1277.46 1425.47L1303.33 1424.36L1310.41 1510.52L1348.75 1507L1343.76 1498.36Z" fill="#EDEEEF"/>
<path d="M1343.76 1498.36C1360.06 1386.98 1303.57 1382.56 1303.57 1382.56" stroke="black" stroke-width="1.5" stroke-linecap="round" stroke-linejoin="round"/>
<path d="M1290.52 1367.4L1228.86 1382.56C1228.86 1382.56 1224.78 1429.85 1290.52 1425.47L1326.12 1375.63L1290.52 1367.4Z" fill="#EDEEEF"/>
<path d="M1290.52 1425.47L1326.12 1375.63" stroke="black" stroke-width="1.5" stroke-linecap="round" stroke-linejoin="round"/>
<path d="M1228.86 1382.56C1228.86 1382.56 1224.78 1429.85 1290.52 1425.47" stroke="black" stroke-width="1.5" stroke-linecap="round" stroke-linejoin="round"/>
<path d="M1247.43 1274.08V1281.03C1247.43 1286.4 1251.09 1291.07 1256.31 1292.35L1267.36 1295.07V1267.92L1258.17 1265.66C1255.58 1265.03 1252.85 1265.62 1250.75 1267.26C1248.65 1268.9 1247.43 1271.42 1247.43 1274.08V1274.08Z" fill="#EDEEEF"/>
<path d="M1247.43 1281.03C1247.43 1286.4 1251.09 1291.07 1256.31 1292.35L1267.36 1295.07" stroke="black" stroke-width="1.5" stroke-linecap="round" stroke-linejoin="round"/>
<path d="M1258.68 1279.65C1258.98 1279.65 1259.22 1279.41 1259.22 1279.12C1259.22 1278.82 1258.98 1278.58 1258.68 1278.58C1258.39 1278.58 1258.15 1278.82 1258.15 1279.12C1258.15 1279.41 1258.39 1279.65 1258.68 1279.65Z" fill="black"/>
<path d="M1250.5 1279.65C1250.79 1279.65 1251.03 1279.41 1251.03 1279.12C1251.03 1278.82 1250.79 1278.58 1250.5 1278.58C1250.21 1278.58 1249.97 1278.82 1249.97 1279.12C1249.97 1279.41 1250.21 1279.65 1250.5 1279.65Z" fill="black"/>
<path d="M1252.9 1282.3V1274.08H1248.79" stroke="black" stroke-width="1.5" stroke-linecap="round" stroke-linejoin="round"/>
<path d="M1259.69 1274.08H1255.57" stroke="black" stroke-width="1.5" stroke-linecap="round" stroke-linejoin="round"/>
<path d="M1266.04 1278.29V1281.14C1267.58 1281.14 1268.83 1279.9 1268.83 1278.36C1268.83 1278.27 1268.83 1278.19 1268.82 1278.1C1268.66 1276.37 1266.04 1276.55 1266.04 1278.29Z" fill="#EDEEEF"/>
<path d="M1266.04 1281.14C1267.58 1281.14 1268.83 1279.9 1268.83 1278.36" stroke="black" stroke-width="1.5" stroke-linecap="round" stroke-linejoin="round"/>
<path d="M1255.15 1283.26C1255.5 1283.6 1255.97 1283.8 1256.46 1283.8C1256.94 1283.8 1257.41 1283.6 1257.76 1283.26" stroke="#DC911B" stroke-width="1.5" stroke-linecap="round" stroke-linejoin="round"/>
<path d="M1252.9 1282.3L1254.7 1282.74" stroke="black" stroke-width="1.5" stroke-linecap="round" stroke-linejoin="round"/>
<path d="M1246.85 1271.17L1262.38 1271.92C1262.38 1271.92 1263.27 1277.01 1266.04 1277.56" stroke="black" stroke-width="1.5" stroke-linecap="round" stroke-linejoin="round"/>
<path d="M1246.85 1284.57L1239.84 1282.3C1239.84 1282.3 1240.21 1255.77 1262.76 1259.77C1262.76 1259.77 1277.03 1260.35 1278.54 1275.75C1280.04 1291.16 1279.81 1292.14 1279.81 1292.14L1267.36 1289.21" stroke="black" stroke-width="1.5" stroke-linecap="round" stroke-linejoin="round"/>
<path d="M1290.52 1323.88V1367.4L1228.86 1382.56V1334.08C1228.86 1316.9 1240.6 1301.93 1257.29 1297.83H1257.29C1265.29 1295.86 1273.75 1297.68 1280.24 1302.77C1286.73 1307.85 1290.52 1315.64 1290.52 1323.88V1323.88Z" fill="#DC911B"/>
<path d="M1246.85 1302.15C1246.85 1302.15 1206.08 1326.49 1191.43 1363.12C1176.77 1399.75 1250.55 1377.23 1250.55 1377.23C1250.55 1377.23 1262.54 1378.01 1267.05 1372.37L1272.52 1371.82L1271.88 1369.23L1226.29 1359.22L1247.43 1339.8" stroke="black" stroke-width="1.5" stroke-linecap="round" stroke-linejoin="round"/>
<path d="M1226.29 1359.22L1243.01 1362.89C1230.81 1358.38 1243.81 1343.12 1243.82 1343.12L1226.29 1359.22Z" fill="black"/>
<path d="M1252.2 1364.91C1251.69 1364.54 1250.28 1364.21 1247.71 1363.92L1252.2 1364.91Z" fill="black"/>
<path d="M1285.23 1307.88L1303.57 1335.67C1303.57 1335.67 1309.7 1302.61 1318.21 1299.6C1326.73 1296.59 1330.74 1295.07 1330.74 1295.07L1331.69 1298.08L1327.73 1302.15C1327.73 1302.15 1331.58 1310.62 1325.15 1312.63C1325.15 1312.63 1344.18 1366.69 1305.4 1370.84" stroke="black" stroke-width="1.5" stroke-linecap="round" stroke-linejoin="round"/>
<path d="M1306.49 1441.89C1306.49 1474.2 1280.3 1500.39 1247.99 1500.39C1215.68 1500.39 1189.49 1474.2 1189.49 1441.89C1189.49 1409.58 1215.68 1383.39 1247.99 1383.39C1280.3 1383.39 1306.49 1409.58 1306.49 1441.89Z" fill="#EDEEEF" stroke="#EDEEEF" stroke-width="1.5"/>
<circle cx="1243.72" cy="1442.36" r="65.926" stroke="black" stroke-width="1.5"/>
<ellipse cx="1239.93" cy="1442.36" rx="10.428" ry="10.428" fill="black"/>
<path d="M1569.5 1500.68C1693.02 1500.68 1942.11 1616.82 1937.5 1757.5" stroke="black" stroke-width="1.5"/>
<path d="M710.5 320.655C850.333 327.155 1134.4 384.755 1152 563.155C1169.6 741.555 1257 724.025 1321 724.525" stroke="black" stroke-width="1.5"/>
<path d="M1580.5 725.155C1612.5 754.989 1673 845.255 1659 967.655C1641.5 1120.66 1470.5 1203.66 1313.5 1208.16C1187.9 1211.76 891.167 1161.66 758.5 1136.16" stroke="black" stroke-width="1.5"/>
<path d="M376 1136.16C326.5 1143.99 145 1136.16 145 1353.66C145 1472.16 831.437 1815.71 1042.5 1674.5C1254 1533 1243.5 1501 1345.5 1501" stroke="black" stroke-width="1.5"/>
<path d="M372.5 321.235C279.5 321.235 83.4 293.555 1 71.1553" stroke="black" stroke-width="1.5"/>
</svg>
